<svg width="3503.0000000000005" height="997" xmlns="http://www.w3.org/2000/svg" version="1.1">

 <g>
  <title>Layer 1</title>
  <g id="svg_160">
   <path id="svg_1" fill="#ffffff" d="m186.80986,213.32324c1.95228,0.04928 3.90458,0.09829 5.85687,0.14705c21.33512,0.55109 42.66063,1.37628 63.98565,2.22365c5.91791,0.23426 11.836,0.46395 17.75406,0.69426c10.33902,0.40293 20.67793,0.80852 31.01677,1.21596c15.42967,0.60801 30.85954,1.21112 46.28944,1.81317c7.4096,0.28912 14.81918,0.57846 22.22876,0.86786c1.11915,0.04371 1.11915,0.04371 2.26091,0.0883c16.33699,0.63811 32.67389,1.27824 49.01079,1.91856c65.40871,2.56368 130.81795,5.11396 196.22731,7.66102c6.10395,0.2377 12.20791,0.47546 18.31186,0.71324c91.84487,3.57779 183.69076,7.12757 345.04355,13.27889c3.82629,0.14566 7.65258,0.29133 11.47886,0.43701c74.39054,2.83222 148.78128,5.65892 223.17225,8.47945c18.60234,0.70532 37.20467,1.41086 55.80697,2.11737c0.84856,0.03223 1.69712,0.06446 2.57139,0.09766c8.42806,0.3201 16.85613,0.64025 25.28419,0.96048c17.7294,0.67362 35.45885,1.34612 53.18839,2.01622c12.6177,0.4769 25.23534,0.95526 37.85293,1.43515c6.75814,0.25699 13.51631,0.51323 20.27455,0.76758c6.15466,0.23164 12.30924,0.46525 18.46376,0.70043c2.21225,0.08419 4.42452,0.16765 6.63683,0.2503c11.50633,0.43024 22.99106,0.92998 34.47405,1.79315c0.1057,-0.7786 0.21141,-1.55719 0.32031,-2.35938c0.67969,-2.64062 0.67969,-2.64062 3.55469,-4.89062c5.77105,-3.23179 11.74071,-3.80058 18.19531,-2.25391c4.15255,1.59091 6.59279,3.76486 8.92969,7.50391c0,0.99 0,1.98 0,3c0.71615,0.02283 1.43231,0.04567 2.17017,0.0692c6.82338,0.218 13.64669,0.43839 20.46992,0.66129c3.506,0.11445 7.01202,0.22806 10.51811,0.33958c55.65098,1.7728 55.65098,1.7728 68.78711,13.69555c2.76848,3.07609 5.17696,6.13829 6.05469,10.23438c-0.11472,1.55817 -0.27346,3.11344 -0.46484,4.66406c-0.09789,0.81163 -0.19578,1.62325 -0.29663,2.45947c-0.11807,0.92885 -0.11807,0.92885 -0.23853,1.87647c-19.76749,0.2969 -39.48821,-0.55775 -59.23515,-1.33803c-5.01962,-0.1974 -10.03942,-0.38981 -15.05921,-0.58289c-9.80301,-0.37781 -19.60583,-0.76013 -29.40861,-1.14402c-11.43455,-0.44761 -22.86927,-0.89069 -34.304,-1.3336c-20.40895,-0.79067 -40.81773,-1.58541 -61.22643,-2.38247c-19.77169,-0.77217 -39.5435,-1.54149 -59.31543,-2.30762c-1.2188,-0.04722 -2.4376,-0.09445 -3.69334,-0.14311c-1.82515,-0.07072 -1.82515,-0.07072 -3.68717,-0.14287c-22.56373,-0.87431 -45.12736,-1.75112 -67.69094,-2.62919c-7.95817,-0.30965 -15.91636,-0.6186 -23.87456,-0.92734c-9.70225,-0.37645 -19.40443,-0.75437 -29.10655,-1.13408c-4.94375,-0.19345 -9.88752,-0.38633 -14.83136,-0.57757c-4.53479,-0.17544 -9.06951,-0.35265 -13.60419,-0.53123c-1.63081,-0.06392 -3.26165,-0.12723 -4.89252,-0.18982c-10.36824,-0.39839 -20.71771,-0.9433 -31.07054,-1.63616c0,1.65 0,3.3 0,5c0.95234,-0.00697 1.90467,-0.01394 2.88587,-0.02112c10.20919,-0.0512 20.38261,0.2154 30.5827,0.62181c1.70308,0.06555 3.40618,0.13082 5.10929,0.19585c4.6342,0.17773 9.26824,0.35927 13.90226,0.54149c5.01574,0.19654 10.03162,0.38948 15.04748,0.58288c9.80915,0.37879 19.61816,0.76085 29.42714,1.14402c11.44116,0.44681 22.88244,0.89028 34.32374,1.33361c20.42762,0.79164 40.85512,1.58621 61.28255,2.38246c19.78541,0.77123 39.57089,1.54054 59.35645,2.30762c1.21812,0.04723 2.43624,0.09445 3.69127,0.14311c1.21608,0.04715 2.43217,0.0943 3.68511,0.14287c2.44899,0.09495 4.89798,0.1899 7.34697,0.28484c1.81199,0.07025 1.81199,0.07025 3.66059,0.14192c18.90317,0.73295 37.80628,1.4676 56.70938,2.20244c6.83109,0.26554 13.66219,0.53084 20.49329,0.79597c10.84211,0.42082 21.68419,0.84239 32.52622,1.26544c4.94827,0.19307 9.89655,0.38581 14.84487,0.57758c38.07293,1.47595 38.07293,1.47595 54.12482,2.35721c-4.27168,7.68173 -8.25243,10.89716 -16.6875,13.75c-11.15342,2.91468 -22.71073,2.29806 -34.125,1.8125c-1.38604,-0.05342 -2.77211,-0.10616 -4.1582,-0.15821c-3.34342,-0.12814 -6.68642,-0.26302 -10.0293,-0.40429c-0.12117,0.6239 -0.24234,1.24781 -0.36719,1.89062c-0.63281,2.10938 -0.63281,2.10938 -2.75781,3.85938c-3.61216,1.5705 -5.96852,1.73831 -9.875,1.25c-4.65519,-2.83359 -4.65519,-2.83359 -5.63281,-6.14063c-0.12117,-0.61359 -0.24235,-1.22718 -0.36719,-1.85937c-0.90947,0.00565 -1.81893,0.0113 -2.75596,0.01713c-9.0737,0.03173 -18.11738,-0.15701 -27.18569,-0.50444c-1.43562,-0.05294 -2.87125,-0.10563 -4.30689,-0.15809c-3.08112,-0.11308 -6.16216,-0.22785 -9.24317,-0.34396c-4.97847,-0.18755 -9.95709,-0.37094 -14.93573,-0.55376c-7.15817,-0.26318 -14.31628,-0.52783 -21.47435,-0.79349c-18.76549,-0.69611 -37.53139,-1.38096 -56.29743,-2.06183c-1.41456,-0.05135 -1.41456,-0.05135 -2.8577,-0.10375c-38.43614,-1.39477 -76.87541,-2.67217 -115.31808,-3.87281c-1.37938,-0.04313 -2.75876,-0.08625 -4.13814,-0.12938c-16.16209,-0.50511 -32.32435,-1.00419 -48.48686,-1.49562c-0.11859,0.92941 -0.23719,1.85883 -0.35938,2.8164c-0.83369,4.14307 -2.29012,5.67072 -5.64062,8.1836c-2.86875,0 -4.32567,-0.59059 -6.75,-2.0625c-1.97977,-3.06864 -1.85782,-6.33163 -2.25,-9.9375c-0.54898,0.00523 -1.09796,0.01047 -1.66357,0.01587c-14.69983,0.11857 -29.36531,-0.15544 -44.05469,-0.66016c-0.69347,-0.02296 -1.38693,-0.04591 -2.10141,-0.06956c-1.87464,-0.06243 -3.74917,-0.12824 -5.62369,-0.19436c-4.28011,-0.11527 -8.56014,-0.10207 -12.84143,-0.09753c-0.74257,0.00041 -1.48513,0.00083 -2.2502,0.00126c-1.82167,0.00107 -3.64334,0.00272 -5.46501,0.00448c-0.63494,19.39605 -1.2696,38.79211 -1.90395,58.18818c-0.29466,9.0097 -0.58942,18.01941 -0.88438,27.0291c-0.25765,7.86994 -0.51513,15.73989 -0.77242,23.60984c-0.13573,4.15152 -0.27153,8.30303 -0.40754,12.45454c-0.27479,8.38892 -0.54841,16.77788 -0.81922,25.16694c-0.14251,4.40929 -0.28733,8.8185 -0.43377,13.22767c-0.09542,2.88493 -0.18912,5.76991 -0.28244,8.65491c-0.06392,1.96008 -0.12986,3.92009 -0.19591,5.8801c-0.38276,11.92976 -0.40635,23.85417 -0.30037,35.78872c0.65782,0.34144 1.31565,0.68288 1.99341,1.03467c22.14464,11.49695 22.14464,11.49695 32.63159,17.02783c10.77303,5.68156 21.57425,11.30884 32.375,16.9375c11.60995,6.05036 23.2168,12.1059 34.79785,18.21142c7.20876,3.79799 14.43393,7.56427 21.65967,11.32984c5.98009,3.11781 11.95245,6.24973 17.91748,9.39624c7.36063,3.88197 14.73987,7.72735 22.125,11.5625c8.14847,4.23155 16.28577,8.48297 24.40723,12.76611c10.0133,5.27832 20.05478,10.50273 30.09277,15.73389c11.60995,6.05036 23.2168,12.1059 34.79785,18.21142c7.20876,3.79799 14.43393,7.56427 21.65967,11.32984c5.98009,3.11781 11.95246,6.24971 17.91748,9.39624c6.32004,3.33351 12.6528,6.64173 18.99438,9.93408c3.20529,1.66478 6.4082,3.33405 9.61109,5.00342c3.76276,1.95933 7.53471,3.89771 11.32031,5.8125c1.18699,0.60799 1.18699,0.60799 2.39795,1.22827c1.44606,0.74069 2.89666,1.47263 4.35254,2.19385c2.66066,1.37378 4.64781,2.45672 6.37451,4.94507c0.81256,2.75275 0.81689,5.09398 0.57422,7.94531c-2,3 -2,3 -5.32422,4.08203c-6.5358,0.57223 -11.97441,-3.33084 -17.48828,-6.39453c-1.21084,-0.65352 -2.42277,-1.30503 -3.63574,-1.95459c-2.41626,-1.29725 -4.82657,-2.60455 -7.23194,-3.92188c-4.3307,-2.36249 -8.69764,-4.6516 -13.06982,-6.93603c-1.5055,-0.79372 -3.01071,-1.588 -4.51563,-2.38281c-5.4024,-2.84809 -10.81843,-5.66994 -16.23437,-8.49219c-7.00773,-3.65213 -14.00966,-7.3147 -21,-11c-10.81547,-5.70091 -21.65796,-11.34983 -32.5,-17c-11.61286,-6.05188 -23.22219,-12.10971 -34.80664,-18.21582c-10.04791,-5.29302 -20.12213,-10.5357 -30.19336,-15.78418c-11.60995,-6.05037 -23.2168,-12.1059 -34.79785,-18.21143c-7.20876,-3.79798 -14.43393,-7.56427 -21.65967,-11.32983c-5.98009,-3.11781 -11.95245,-6.24974 -17.91748,-9.39624c-7.36063,-3.88198 -14.73987,-7.72736 -22.125,-11.5625c-8.14847,-4.23155 -16.28577,-8.48298 -24.40723,-12.76612c-10.0133,-5.27831 -20.05478,-10.50272 -30.09277,-15.73388c-11.60995,-6.05037 -23.2168,-12.1059 -34.79785,-18.21143c-7.20876,-3.79798 -14.43393,-7.56427 -21.65967,-11.32983c-5.98009,-3.11781 -11.95245,-6.24974 -17.91748,-9.39624c-7.36063,-3.88198 -14.73987,-7.72736 -22.125,-11.5625c-8.14847,-4.23155 -16.28577,-8.48298 -24.40723,-12.76612c-10.0133,-5.27831 -20.05478,-10.50272 -30.09277,-15.73388c-11.60995,-6.05037 -23.2168,-12.1059 -34.79785,-18.21143c-7.20876,-3.79798 -14.43393,-7.56427 -21.65967,-11.32983c-5.98009,-3.11781 -11.95245,-6.24974 -17.91748,-9.39624c-7.36063,-3.88198 -14.73987,-7.72736 -22.125,-11.5625c-8.14847,-4.23155 -16.28577,-8.48298 -24.40723,-12.76612c-10.0133,-5.27831 -20.05478,-10.50272 -30.09277,-15.73388c-11.60995,-6.05037 -23.2168,-12.1059 -34.79785,-18.21143c-7.20876,-3.79798 -14.43393,-7.56427 -21.65967,-11.32983c-6.73951,-3.51375 -13.46744,-7.04883 -20.18994,-10.59497c-5.59721,-2.94881 -11.20756,-5.87172 -16.823,-8.78565c-3.21902,-1.67169 -6.43486,-3.34941 -9.65063,-5.02734c-3.54054,-1.84509 -7.09053,-3.66506 -10.66407,-5.44531c-0.69319,-0.35176 -1.38638,-0.70351 -2.10058,-1.06592c-1.76872,-0.89691 -3.54468,-1.77949 -5.32129,-2.66065c-3.31101,-2.2274 -4.90864,-4.38074 -6.79297,-7.8789c0.14452,-3.75749 0.32552,-5.32552 3,-8c5.3008,-1.28385 8.15834,-0.97072 12.92187,1.61328c1.09796,0.58346 2.19592,1.16692 3.32715,1.76807c1.15533,0.63728 2.31065,1.27456 3.50098,1.93115c1.21552,0.6533 2.432,1.30482 3.64941,1.95459c2.4266,1.29819 4.84788,2.60549 7.26465,3.92187c4.33943,2.35582 8.71068,4.64775 13.08594,6.93604c1.50546,0.79378 3.01067,1.58806 4.51562,2.38281c5.40241,2.84808 10.81844,5.66994 16.23438,8.49219c7.00773,3.65212 14.00966,7.3147 21,11c10.81547,5.70091 21.65796,11.34982 32.5,17c11.61286,6.05188 23.22219,12.10971 34.80664,18.21582c10.04791,5.29302 20.12213,10.5357 30.19336,15.78418c11.60995,6.05036 23.2168,12.1059 34.79785,18.21142c7.20876,3.79799 14.43393,7.56427 21.65967,11.32984c5.98009,3.11781 11.95245,6.24973 17.91748,9.39624c7.36063,3.88197 14.73987,7.72735 22.125,11.5625c8.14847,4.23155 16.28577,8.48297 24.40723,12.76611c10.0133,5.27832 20.05478,10.50273 30.09277,15.73389c11.60123,6.04582 23.20063,12.09444 34.77148,18.19824c4.41876,2.32911 8.84398,4.64525 13.27539,6.9502c1.03061,0.53625 2.06122,1.0725 3.12305,1.625c2.00066,1.04029 4.00193,2.07942 6.00391,3.11718c0.91717,0.47696 1.83433,0.95391 2.77929,1.44532c0.80599,0.41813 1.61198,0.83627 2.44239,1.26709c3.23864,1.73711 6.41592,3.56948 9.60449,5.39697c-0.00639,-1.14845 -0.01278,-2.2969 -0.01936,-3.48016c-0.0444,-11.59577 0.18065,-23.16256 0.57014,-34.75104c0.05938,-1.83529 0.11848,-3.67058 0.17734,-5.50588c0.15841,-4.91616 0.32056,-9.8322 0.48345,-14.74822c0.17039,-5.16216 0.33725,-10.32444 0.50449,-15.4867c0.31628,-9.74593 0.63568,-19.49174 0.95624,-29.23753c0.36519,-11.10776 0.72686,-22.21565 1.08825,-33.32354c0.74259,-22.82244 1.48955,-45.64473 2.23945,-68.46693c-1.14303,-0.03547 -2.28607,-0.07093 -3.46374,-0.10747c-44.97558,-1.39576 -89.949,-2.79769 -134.91126,-4.58003c-0.84029,-0.03331 -1.68057,-0.06661 -2.54632,-0.10093c-10.02647,-0.39793 -20.0527,-0.80144 -30.07868,-1.21157c-0.26555,0.63808 -0.53109,1.27617 -0.80469,1.93359c-0.3532,0.82629 -0.7064,1.65258 -1.07031,2.50391c-0.34805,0.82371 -0.69609,1.64742 -1.05469,2.49609c-1.07031,2.06641 -1.07031,2.06641 -3.07031,3.06641c-2.9375,0.3125 -2.9375,0.3125 -6,0c-3.50136,-3.01842 -3.4412,-6.60654 -4,-11c-1.4305,-0.03759 -1.4305,-0.03759 -2.88989,-0.07593c-3.5392,-0.09419 -7.07821,-0.19438 -10.61719,-0.29639c-1.53153,-0.0433 -3.06311,-0.08498 -4.59473,-0.125c-2.20188,-0.05781 -4.40353,-0.12147 -6.60522,-0.18628c-0.68448,-0.01671 -1.36896,-0.03342 -2.07417,-0.05064c-2.99,-0.09312 -5.35942,-0.31264 -8.2188,-1.26576c-0.06188,0.88687 -0.12375,1.77375 -0.1875,2.6875c-1.02464,4.17739 -2.35912,5.78002 -5.8125,8.3125c-3.21534,0 -5.08848,-0.43423 -7.8125,-2.125c-1.7579,-2.77563 -1.78216,-5.6546 -2.1875,-8.875c-1.65201,-0.05848 -1.65201,-0.05848 -3.33739,-0.11814c-33.02832,-1.17531 -66.05075,-2.4881 -99.07277,-3.82717c-1.6167,-0.06554 -1.6167,-0.06554 -3.26606,-0.1324c-17.95252,-0.72776 -35.90495,-1.45799 -53.85736,-2.18854c-13.64118,-0.5551 -27.28238,-1.10979 -40.92365,-1.66283c-6.3712,-0.25835 -12.74236,-0.51767 -19.11349,-0.77775c-3.92801,-0.16015 -7.85605,-0.31946 -11.7841,-0.47855c-1.81854,-0.07382 -3.63706,-0.14799 -5.45557,-0.22254c-2.47825,-0.10154 -4.95655,-0.20184 -7.43486,-0.30183c-0.71901,-0.02976 -1.43802,-0.05953 -2.17882,-0.09019c-3.5278,-0.141 -7.04526,-0.23184 -10.57593,-0.20006c-0.26813,1.09312 -0.53625,2.18625 -0.8125,3.3125c-1.65928,5.15251 -1.65928,5.15251 -4.1875,6.6875c-3.1875,0.1875 -3.1875,0.1875 -6,0c-0.64835,-1.26956 -1.29358,-2.5407 -1.9375,-3.8125c-0.35965,-0.7077 -0.7193,-1.41539 -1.08984,-2.14453c-0.97266,-2.04297 -0.97266,-2.04297 -1.97266,-5.04297c-28.03931,-1.0095 -56.07866,-2.01806 -84.11804,-3.02559c-13.02659,-0.4681 -26.05316,-0.93648 -39.07971,-1.40556c-13.82271,-0.49773 -27.64543,-0.99475 -41.46819,-1.49095c-2.46384,-0.08845 -4.92767,-0.17692 -7.39151,-0.26543c-35.43199,-1.27511 -35.43199,-1.27511 -70.86638,-2.48142c-0.72577,-0.02398 -1.45154,-0.04795 -2.1993,-0.07266c-6.91419,-0.22809 -13.82849,-0.45221 -20.74302,-0.66949c-12.05458,-0.38351 -24.0929,-0.89669 -36.13385,-1.5889c-0.30422,1.11504 -0.60844,2.23008 -0.92188,3.3789c-1.50645,5.05973 -1.50645,5.05973 -4.07812,6.6211c-3.57071,0.53181 -5.29755,0.47462 -8.3125,-1.5625c-2.14676,-3.10087 -2.25117,-5.73514 -2.6875,-9.4375c-1.28366,0.01958 -2.56733,0.03915 -3.88989,0.05932c-18.73563,0.18886 -37.40222,-0.6891 -56.10848,-1.61404c-2.72256,-0.13443 -5.4452,-0.26703 -8.16786,-0.39938c-35.99159,-1.75785 -71.91831,-4.12797 -107.83377,-7.0459c-1.1176,-0.08959 -2.23519,-0.17918 -3.38666,-0.27149c-25.77385,-2.06902 -50.84347,-4.59146 -75.67584,-12.22851c-0.8872,-0.2724 -1.77439,-0.54479 -2.68848,-0.82544c-5.47968,-1.79647 -10.77015,-3.95178 -15.24902,-7.67456c-1,-2.8125 -1,-2.8125 -1,-5c4.70456,-4.62203 10.35402,-6.0921 16.5,-8c1.69093,-0.52654 1.69093,-0.52654 3.41602,-1.06372c33.40752,-10.13686 69.57323,-12.38146 104.30594,-13.73424c3.24114,-0.13105 6.47949,-0.28959 9.71839,-0.46725c12.65782,-0.67609 25.20177,-0.76537 37.86951,-0.41155zm-156.80986,22.67676c-0.67959,2.39719 -0.67959,2.39719 -1,5c0.66,0.66 1.32,1.32 2,2c2.60281,-0.32042 2.60281,-0.32042 5,-1c0.04272,-1.66612 0.04064,-3.33383 0,-5c-1.06645,-1.29634 -1.06645,-1.29634 -3.5625,-1.0625c-0.80438,0.02062 -1.60875,0.04125 -2.4375,0.0625zm58,4c-0.99,1.485 -0.99,1.485 -2,3c3.64534,2.26878 6.8634,2.34122 11.10333,2.50488c0.72061,0.03033 1.44123,0.06066 2.18368,0.09191c2.43191,0.1001 4.86412,0.18697 7.29653,0.274c1.76195,0.06976 3.52386,0.14033 5.28574,0.21164c4.87324,0.19487 9.74687,0.37816 14.62063,0.55967c5.2906,0.19905 10.58078,0.40874 15.87102,0.61712c9.28295,0.36414 18.56614,0.7214 27.84953,1.07421c13.80555,0.52469 27.61068,1.05988 41.41574,1.59723c23.22631,0.90373 46.45295,1.79874 69.6798,2.68863c23.02331,0.88211 46.04649,1.76759 69.06948,2.65774c1.44528,0.05588 2.89055,0.11175 4.33582,0.16763c5.80804,0.22455 11.61607,0.44912 17.4241,0.67372c16.23853,0.62796 32.47708,1.25531 48.71564,1.8822c0.73958,0.02855 1.47915,0.0571 2.24114,0.08652c23.57689,0.91015 47.15389,1.81764 70.73096,2.72322c0.76498,0.02938 1.52996,0.05876 2.31813,0.08904c12.42298,0.47714 24.84597,0.95412 37.26895,1.43109c49.2164,1.88962 98.43252,3.78613 147.64837,5.68957c1.55401,0.0601 3.10801,0.1202 4.66201,0.1803c2.32878,0.09006 4.65756,0.18013 6.98634,0.27019c8.50772,0.32903 17.01544,0.65805 25.52316,0.98706c0.76299,0.0295 1.52598,0.05901 2.31209,0.08941c41.24155,1.59487 82.48328,3.18485 123.72508,4.77304c1.45516,0.05604 2.91031,0.11208 4.36546,0.16811c1.45249,0.05594 2.90498,0.11187 4.35747,0.16781c0.718,0.02765 1.436,0.0553 2.17576,0.08378c3.6152,0.13922 7.23039,0.27844 10.84558,0.41764c15.82915,0.60952 31.65827,1.21962 47.48733,1.83134c0.71216,0.02752 1.42432,0.05504 2.15807,0.08339c3.58528,0.13856 7.17056,0.27712 10.75583,0.41569c25.9665,1.00354 51.93313,2.00368 77.89998,2.99804c13.72531,0.52567 27.4505,1.05404 41.17555,1.58638c9.18174,0.35584 18.36361,0.708 27.5456,1.05723c5.22297,0.19875 10.44587,0.39901 15.66861,0.60373c20.77442,0.81333 41.50304,1.55661 62.29749,1.26684c0,-1.65 0,-3.3 0,-5c-87.36152,-3.39278 -174.72304,-6.78534 -294.83551,-11.44043c-1.46991,-0.05696 -2.93982,-0.11392 -4.40974,-0.17088c-30.85752,-1.19572 -61.71505,-2.39122 -92.57258,-3.58647c-15.50202,-0.60046 -31.00403,-1.20096 -46.50604,-1.8015c-2.33835,-0.09059 -4.67669,-0.18117 -7.01503,-0.27176c-35.98399,-1.39399 -71.96795,-2.7889 -107.95181,-4.18648c-0.773,-0.03002 -1.54599,-0.06005 -2.34241,-0.09098c-12.46207,-0.48402 -24.92412,-0.96811 -37.38618,-1.45222c-35.91838,-1.3953 -71.83677,-2.79003 -107.75532,-4.18098c-0.73949,-0.02864 -1.47898,-0.05728 -2.24088,-0.08678c-16.23827,-0.62883 -32.47654,-1.25737 -48.71483,-1.88562c-6.53491,-0.25284 -13.06982,-0.50573 -19.60473,-0.75862c-0.71519,-0.02768 -1.43039,-0.05535 -2.16725,-0.08387c-22.99853,-0.89002 -45.99693,-1.78346 -68.99525,-2.67872c-23.83656,-0.92787 -47.67326,-1.85188 -71.51014,-2.77148c-13.72932,-0.52978 -27.45852,-1.06256 -41.18756,-1.59969c-9.18708,-0.35913 -18.37432,-0.71429 -27.56168,-1.0663c-5.22448,-0.20029 -10.44887,-0.40222 -15.67309,-0.60903c-26.5483,-1.04991 -26.5483,-1.04991 -53.1112,-1.5606c-1.15596,-0.01944 -2.31191,-0.03888 -3.5029,-0.0589c-1.03465,-0.00167 -2.06931,-0.00333 -3.13531,-0.00505c-0.89106,-0.00604 -1.78211,-0.01209 -2.70017,-0.01832c-1.04959,0.18052 -1.04959,0.18052 -2.12039,0.36468z"/>
   <path id="svg_2" fill="#ffffff" d="m3363.3125,213.8125c1.95057,0.09862 3.90117,0.1965 5.85181,0.2937c5.28034,0.27014 10.55817,0.57362 15.83569,0.8938c1.19271,0.0709 2.38541,0.1418 3.61426,0.21484c6.48653,0.41131 12.92994,1.03733 19.38574,1.78516c1.03227,0.11698 1.03227,0.11698 2.08539,0.23633c40.69259,4.61378 40.69259,4.61378 57.91461,9.76367c0.82806,0.24396 1.65612,0.48791 2.50928,0.73926c2.50511,0.75063 4.99951,1.52775 7.49072,2.32324c0.7371,0.23324 1.4742,0.46648 2.23364,0.70679c4.27418,1.44614 7.42609,3.19706 10.76636,6.23071c0,2.1875 0,2.1875 -1,5c-5.2305,4.34753 -11.52662,6.53168 -17.9375,8.5c-0.96325,0.29624 -1.9265,0.59249 -2.91895,0.89771c-24.94336,7.43357 -50.32499,9.5326 -76.14355,11.60229c-1.18205,0.09604 -2.3641,0.19207 -3.58197,0.29102c-35.63699,2.89082 -71.29265,5.15263 -107.00454,6.8887c-2.69078,0.13106 -5.38147,0.2639 -8.07215,0.39694c-19.12356,0.93989 -38.18819,1.71545 -57.34134,1.42334c-0.1302,1.10473 -0.26039,2.20945 -0.39453,3.34766c-0.60547,3.65234 -0.60547,3.65234 -2.29297,6.08984c-3.07065,2.07477 -4.67884,2.24381 -8.3125,1.5625c-3.30584,-3.12714 -4.25504,-5.61136 -5,-10c-1.24393,0.05191 -2.48786,0.10382 -3.76949,0.15731c-29.37522,1.22335 -58.75216,2.36048 -88.13468,3.39312c-5.21463,0.18357 -10.4292,0.36874 -15.64379,0.5537c-9.85163,0.34921 -19.7033,0.69712 -29.555,1.0445c-11.02253,0.38872 -22.045,0.77882 -33.06747,1.16908c-5.41547,0.19174 -10.83094,0.38344 -16.24641,0.57511c-1.05887,0.03748 -2.11774,0.07496 -3.20869,0.11357c-7.3393,0.25974 -14.67862,0.51921 -22.01793,0.77852c-30.11912,1.06423 -60.23799,2.13495 -90.35654,3.21509c-0.27715,0.71027 -0.5543,1.42055 -0.83984,2.15234c-0.36223,0.91911 -0.72446,1.83821 -1.09766,2.78516c-0.53947,1.37479 -0.53947,1.37479 -1.08984,2.77734c-0.97266,2.28516 -0.97266,2.28516 -1.97266,3.28516c-2.8125,0.375 -2.8125,0.375 -6,0c-3.30584,-3.12714 -4.25504,-5.61136 -5,-10c-14.45852,0.53661 -28.91682,1.0792 -43.375,1.625c-1.12302,0.04237 -2.24603,0.08475 -3.40308,0.1284c-32.49948,1.22734 -64.99631,2.51115 -97.49145,3.84816c-0.82908,0.03411 -1.65816,0.06821 -2.51236,0.10335c-16.60276,0.68314 -33.20538,1.36983 -49.80781,2.06096c-6.3023,0.26235 -12.60462,0.52401 -18.90696,0.78522c-4.38591,0.18187 -8.77177,0.36491 -13.15759,0.54889c-2.03857,0.08533 -4.07717,0.1701 -6.11578,0.25462c-2.46175,0.10208 -4.92347,0.20504 -7.38514,0.30909c-1.08476,0.0447 -2.16951,0.08939 -3.28714,0.13544c-0.93474,0.03905 -1.86949,0.0781 -2.83256,0.11834c-2.90994,0.08813 -5.81404,0.09631 -8.72513,0.08253c-0.06187,1.0725 -0.12375,2.145 -0.1875,3.25c-0.8125,3.75 -0.8125,3.75 -3,6.25c-2.8125,1.5 -2.8125,1.5 -5.875,1.625c-3.95677,-1.51536 -5.0388,-3.40063 -6.9375,-7.125c0,-1.32 0,-2.64 0,-4c-1.485,0.495 -1.485,0.495 -3,1c-2.4378,0.15269 -4.85284,0.25683 -7.29297,0.31641c-0.70603,0.02078 -1.41206,0.04156 -2.13948,0.06297c-2.25159,0.06529 -4.50329,0.12429 -6.75505,0.18312c-1.52801,0.0432 -3.056,0.08682 -4.58398,0.13086c-3.74273,0.10698 -7.48556,0.2083 -11.22852,0.30664c-0.21076,1.65709 -0.21076,1.65709 -0.42578,3.34766c-0.83134,5.28779 -0.83134,5.28779 -3.57422,7.65234c-3.06531,0.44702 -5.01963,0.61727 -7.6875,-1.0625c-1.88717,-2.78582 -3.01363,-5.8424 -4.3125,-8.9375c-0.99385,0.03727 -0.99385,0.03727 -2.00779,0.07529c-16.31073,0.61155 -32.62153,1.22112 -48.93241,1.82865c-7.88862,0.29388 -15.77722,0.58835 -23.66576,0.88439c-6.89575,0.25878 -13.79155,0.51628 -20.68741,0.77242c-3.633,0.13498 -7.26597,0.27049 -10.8989,0.40754c-21.59934,0.81425 -43.20052,1.46523 -64.80773,2.03171c0.03092,0.94108 0.06184,1.88216 0.0937,2.85176c0.7547,22.97254 1.50581,45.9452 2.25321,68.91797c0.36153,11.10977 0.7242,22.2195 1.08961,33.32915c0.31876,9.69103 0.6353,19.38212 0.94928,29.07331c0.16609,5.12422 0.33324,10.2484 0.50302,15.3725c0.16029,4.83845 0.3176,9.67698 0.47277,14.5156c0.05698,1.76103 0.11497,3.52202 0.17416,5.28298c0.39881,11.88998 0.53044,23.76018 0.46425,35.65673c19.52506,-10.10255 19.52506,-10.10255 38.99536,-20.31006c6.15833,-3.24903 12.32987,-6.47228 18.50464,-9.68994c6.96653,-3.63044 13.92668,-7.27232 20.875,-10.9375c8.43616,-4.44921 16.89808,-8.84813 25.3623,-13.24365c6.30532,-3.2761 12.60258,-6.56667 18.8877,-9.88135c11.75618,-6.20004 23.54562,-12.33619 35.33203,-18.47852c10.62404,-5.53716 21.24299,-11.08324 31.84082,-16.67041c7.20876,-3.79798 14.43393,-7.56426 21.65967,-11.32983c5.98009,-3.11781 11.95245,-6.24974 17.91748,-9.39624c8.43616,-4.44921 16.89808,-8.84813 25.3623,-13.24365c6.30532,-3.2761 12.60258,-6.56667 18.8877,-9.88135c11.75618,-6.20004 23.54562,-12.33619 35.33203,-18.47852c10.62404,-5.53716 21.24299,-11.08324 31.84082,-16.67041c7.19775,-3.79218 14.41161,-7.55322 21.62671,-11.31225c5.48798,-2.86066 10.9696,-5.73277 16.44165,-8.62378c2.35528,-1.24205 4.71501,-2.47532 7.0752,-3.70801c2.43404,-1.27444 4.82392,-2.58173 7.21093,-3.94531c6.62343,-3.69518 6.62343,-3.69518 10.84766,-2.69922c3,1.5 3,1.5 5,4.5c-0.08285,3.81105 -0.61158,5.55003 -3.11865,8.45435c-3.09088,2.73076 -6.25465,4.58874 -9.92041,6.40112c-0.67381,0.3431 -1.34762,0.68619 -2.04184,1.03969c-2.17702,1.10628 -4.36046,2.1992 -6.5441,3.29234c-1.51227,0.76617 -3.02398,1.53343 -4.53516,2.30176c-2.96214,1.50554 -5.92613,3.00735 -8.8916,4.50635c-4.676,2.36819 -9.31877,4.79658 -13.94824,7.25439c-7.14956,3.78321 -14.32105,7.52286 -21.5,11.25c-8.14561,4.22995 -16.28023,8.47943 -24.39844,12.76172c-7.17473,3.78259 -14.36688,7.53147 -21.55957,11.27978c-5.97992,3.11775 -11.95212,6.24958 -17.91699,9.396c-8.43616,4.44921 -16.89808,8.84813 -25.3623,13.24365c-6.30532,3.2761 -12.60258,6.56667 -18.8877,9.88135c-11.75618,6.20004 -23.54562,12.33619 -35.33203,18.47852c-10.62404,5.53716 -21.24299,11.08324 -31.84082,16.67041c-7.20876,3.79798 -14.43393,7.56426 -21.65967,11.32983c-5.98009,3.11781 -11.95245,6.24974 -17.91748,9.39624c-8.43616,4.44921 -16.89808,8.84813 -25.3623,13.24365c-6.30532,3.2761 -12.60258,6.56667 -18.8877,9.88135c-11.75618,6.20004 -23.54562,12.33619 -35.33203,18.47852c-10.62404,5.53716 -21.24299,11.08324 -31.84082,16.67041c-7.20876,3.79798 -14.43393,7.56426 -21.65967,11.32983c-5.98009,3.11781 -11.95245,6.24974 -17.91748,9.39624c-8.43616,4.44921 -16.89808,8.84813 -25.3623,13.24365c-6.30532,3.2761 -12.60258,6.56667 -18.8877,9.88135c-11.75618,6.20004 -23.54562,12.33619 -35.33203,18.47852c-10.62404,5.53716 -21.24299,11.08324 -31.84082,16.67041c-7.20876,3.79798 -14.43393,7.56426 -21.65967,11.32983c-5.98009,3.11781 -11.95245,6.24974 -17.91748,9.39624c-8.43616,4.44921 -16.89808,8.84813 -25.3623,13.24365c-6.30532,3.2761 -12.60258,6.56667 -18.8877,9.88135c-11.75618,6.20004 -23.54562,12.33619 -35.33203,18.47852c-10.62404,5.53716 -21.24299,11.08324 -31.84082,16.67041c-6.22524,3.27981 -12.46239,6.53648 -18.70215,9.78857c-7.29609,3.80408 -14.59027,7.6117 -21.875,11.4375c-0.74186,0.38865 -1.48371,0.7773 -2.24805,1.17773c-0.70963,0.37319 -1.41925,0.74637 -2.15039,1.13086c-1.03483,0.5431 -1.03483,0.5431 -2.09057,1.09717c-1.52043,0.82338 -3.0244,1.67745 -4.51612,2.55176c-0.78592,0.45874 -1.57185,0.91749 -2.38159,1.39014c-0.706,0.42289 -1.41201,0.84578 -2.1394,1.28149c-3.71074,1.65013 -6.24453,1.01527 -10.09888,-0.06665c-2.32536,-3.48804 -2.33458,-4.90141 -2,-9c0.96373,-3.44745 2.20041,-4.12304 5.32202,-6.03955c1.42692,-0.73064 2.86047,-1.44841 4.29907,-2.15576c0.76702,-0.389 1.53404,-0.77799 2.3243,-1.17877c2.49209,-1.26111 4.99198,-2.50586 7.49211,-3.75092c1.71582,-0.8654 3.43099,-1.73211 5.14551,-2.6001c3.34044,-1.69039 6.68315,-3.37612 10.02783,-5.0581c4.91007,-2.47384 9.78522,-5.00964 14.63916,-7.5918c7.06519,-3.74361 14.15351,-7.44104 21.25,-11.125c8.14563,-4.22991 16.28023,-8.47943 24.39844,-12.76172c7.17473,-3.78259 14.36688,-7.53147 21.55957,-11.27978c5.97992,-3.11775 11.95212,-6.24958 17.91699,-9.396c8.43616,-4.44921 16.89808,-8.84813 25.3623,-13.24365c6.30532,-3.2761 12.60258,-6.56667 18.8877,-9.88135c11.75618,-6.20004 23.54562,-12.33619 35.33203,-18.47852c10.62404,-5.53716 21.24299,-11.08324 31.84082,-16.67041c7.20876,-3.79798 14.43393,-7.56426 21.65967,-11.32983c5.98009,-3.11781 11.95245,-6.24974 17.91748,-9.39624c7.36063,-3.88198 14.73994,-7.72722 22.125,-11.5625c7.71503,-4.0081 15.42748,-8.02084 23.125,-12.0625c0.75088,-0.39316 1.50176,-0.78633 2.27539,-1.19141c0.70576,-0.37125 1.41152,-0.7425 2.13867,-1.125c0.60022,-0.31525 1.20044,-0.63051 1.81885,-0.95532c1.94027,-1.05593 3.85901,-2.14115 5.77597,-3.23863c1.11082,-0.63596 2.22164,-1.27191 3.36612,-1.92714c0.19172,-19.61547 -0.33689,-39.18402 -0.97671,-58.78535c-0.13979,-4.3078 -0.27511,-8.61573 -0.411,-12.92365c-0.22859,-7.22705 -0.46004,-14.454 -0.69359,-21.68089c-0.32645,-10.10214 -0.64734,-20.20444 -0.96726,-30.30678c-0.2251,-7.10095 -0.45161,-14.20184 -0.67834,-21.30274c-0.05406,-1.69363 -0.10808,-3.38727 -0.16206,-5.08091c-0.63676,-19.9761 -1.30612,-39.94949 -2.11104,-59.91968c-10.1368,-0.04939 -20.24131,0.07945 -30.37164,0.42752c-14.54646,0.49537 -29.07245,0.71133 -43.62836,0.57248c-0.17789,1.90072 -0.17789,1.90072 -0.35938,3.83984c-0.31663,3.38313 -0.51952,4.02224 -2.89062,6.72266c-2.75,1.4375 -2.75,1.4375 -5.375,1.4375c-2.93913,-1.23753 -3.86111,-2.19931 -5.375,-5c-0.36663,-1.99417 -0.70366,-3.99419 -1,-6c-27.53325,0.87724 -55.06634,1.75983 -82.59929,2.64653c-3.20026,0.10305 -6.40054,0.20605 -9.60081,0.30904c-55.56866,1.78891 -111.13434,3.61257 -166.68887,5.80316c-3.9981,0.15745 -7.99627,0.31319 -11.99444,0.46894c-2.60931,0.10275 -5.21846,0.20898 -7.8276,0.3157c-9.43667,0.37609 -18.84433,0.54029 -28.28899,0.45663c-0.2952,0.78762 -0.59039,1.57523 -0.89453,2.38672c-1.30352,3.08147 -2.13681,4.08883 -5.10547,5.61328c-3.85999,0.42109 -6.3046,0.30235 -9.875,-1.25c-2.39538,-1.97267 -2.55517,-2.81597 -3.125,-5.75c-0.92635,0.04077 -1.85271,0.08153 -2.80713,0.12354c-3.50738,0.14812 -7.01484,0.28453 -10.52295,0.41357c-1.50506,0.05764 -3.00996,0.11966 -4.51465,0.18652c-30.63115,1.34957 -30.63115,1.34957 -42.09277,-8.16113c-1.95287,-2.42629 -3.49105,-4.88074 -5.0625,-7.5625c78.51133,-3.3187 157.03292,-6.37296 235.55543,-9.41311c0.94177,-0.03646 1.88353,-0.07292 2.85384,-0.11049c0.94307,-0.03652 1.88615,-0.07303 2.85781,-0.11065c1.41648,-0.05484 1.41648,-0.05484 2.86158,-0.11079c1.91048,-0.07397 3.82096,-0.14794 5.73144,-0.2219c15.54783,-0.602 31.09555,-1.20695 46.64322,-1.81307c16.18031,-0.63075 32.36072,-1.25917 48.54121,-1.88524c9.00099,-0.34833 18.00194,-0.6976 27.00279,-1.04946c7.59407,-0.29686 15.18823,-0.59158 22.78249,-0.88355c3.8568,-0.14834 7.71356,-0.29764 11.57021,-0.44969c29.61634,-1.16641 29.61634,-1.16641 42.59998,-0.95205c0,-1.65 0,-3.3 0,-5c-1.06312,0.05219 -2.12625,0.10437 -3.22159,0.15814c-25.34522,1.24059 -50.69228,2.36072 -76.0488,3.34214c-4.67463,0.18133 -9.34917,0.36481 -14.02372,0.54795c-10.12876,0.39644 -20.25762,0.79025 -30.3865,1.18349c-6.34736,0.24646 -12.69469,0.49355 -19.04202,0.74076c-21.05597,0.82001 -42.112,1.63837 -63.16811,2.45474c-1.12644,0.04368 -2.25288,0.08735 -3.41346,0.13235c-1.12785,0.04373 -2.25569,0.08746 -3.41771,0.13251c-18.33784,0.71109 -36.67551,1.42629 -55.01311,2.14327c-18.92902,0.74006 -37.85816,1.4769 -56.78743,2.2105c-10.58822,0.4104 -21.17638,0.82212 -31.76441,1.23734c-8.99433,0.35271 -17.98878,0.70243 -26.98337,1.04838c-4.57616,0.1761 -9.15225,0.35351 -13.72821,0.53472c-18.00469,0.71211 -35.97813,1.3773 -54.00156,1.13371c-0.21029,-1.41097 -0.40519,-2.82424 -0.59375,-4.23828c-0.11021,-0.78673 -0.22043,-1.57346 -0.33398,-2.38403c-0.14788,-4.86528 2.25335,-8.49955 5.40429,-12.03394c12.86833,-11.95352 29.49802,-12.85402 46.08594,-13.46875c1.85404,-0.07774 3.70804,-0.15637 5.56201,-0.23584c16.95258,-0.70948 33.91333,-1.22413 50.87549,-1.63916c0.10699,-0.76828 0.21398,-1.53656 0.32422,-2.32812c1.00933,-3.99064 3.39098,-5.35319 6.67578,-7.67188c6.07935,-1.98484 12.71615,-1.95277 18.5,0.8125c2.87678,1.5386 3.59231,2.32597 5.5,5.1875c0,0.99 0,1.98 0,3c0.92,-0.04808 1.84,-0.09616 2.78788,-0.1457c31.02751,-1.61004 62.0683,-2.82326 93.11494,-3.99378c7.56291,-0.28524 15.12572,-0.57317 22.68854,-0.86116c14.07024,-0.53572 28.14057,-1.06946 42.21093,-1.60211c19.58876,-0.74157 39.1774,-1.48601 58.76602,-2.23114c9.30194,-0.35383 18.60387,-0.70754 27.90581,-1.06122c0.93443,-0.03553 1.86886,-0.07106 2.8316,-0.10767c20.38045,-0.77489 40.76094,-1.54865 61.14144,-2.32229c79.42017,-3.01476 158.84011,-6.03583 238.25987,-9.06139c6.09757,-0.23229 12.19514,-0.46456 18.29271,-0.69681c92.96884,-3.54115 185.93723,-7.09321 336.12182,-12.93916c4.61559,-0.18005 9.23118,-0.36005 13.84678,-0.54003c56.16541,-2.19028 112.33063,-4.38533 168.49534,-6.59335c21.14286,-0.83119 42.2858,-1.66018 63.42882,-2.4874c12.70668,-0.49729 25.41328,-0.99682 38.11974,-1.49979c8.4225,-0.33323 16.84509,-0.66386 25.26777,-0.99251c4.74607,-0.18528 9.4921,-0.37161 14.238,-0.56136c19.72834,-0.78799 39.45519,-1.45054 59.19403,-1.91504c0.92658,-0.02255 1.85316,-0.04511 2.80781,-0.06835c13.96799,-0.33494 27.83675,-0.28889 41.79265,0.49276zm106.6875,23.1875c-0.04064,1.66617 -0.04272,3.33388 0,5c2.39719,0.67959 2.39719,0.67959 5,1c0.66,-0.66 1.32,-1.32 2,-2c-0.32041,-2.60281 -0.32041,-2.60281 -1,-5c-3.2893,-0.36686 -3.2893,-0.36686 -6,1zm-126.8672,4.6762c-6.31184,0.24731 -12.62393,0.4883 -18.93599,0.73013c-10.90746,0.41875 -21.81476,0.84142 -32.72196,1.26702c-11.43139,0.44606 -22.86285,0.89007 -34.29443,1.33135c-0.71446,0.02758 -1.42892,0.05517 -2.16503,0.08358c-2.90087,0.11199 -5.80174,0.22395 -8.70261,0.33591c-27.13255,1.04712 -54.26487,2.10007 -81.39707,3.156c-24.0782,0.93705 -48.15655,1.87011 -72.23505,2.79945c-1.5486,0.05977 -3.09721,0.11954 -4.64582,0.17932c-0.76563,0.02955 -1.53126,0.0591 -2.32008,0.08954c-3.8545,0.14878 -7.70899,0.29756 -11.56348,0.44634c-0.76053,0.02936 -1.52106,0.05871 -2.30464,0.08896c-20.16584,0.77843 -40.33157,1.55949 -60.49728,2.34145c-0.7174,0.02782 -1.4348,0.05564 -2.17394,0.0843c-2.88438,0.11185 -5.76876,0.22369 -8.65314,0.33556c-10.01628,0.38843 -20.03259,0.776 -30.04893,1.16299c-12.89797,0.49834 -25.79587,0.99857 -38.69365,1.50179c-6.21515,0.24246 -12.43033,0.48408 -18.6456,0.7234c-5.69151,0.21917 -11.38291,0.44083 -17.07424,0.66446c-2.05585,0.08035 -4.11174,0.15981 -6.16767,0.23827c-9.98518,0.38158 -19.9441,0.77509 -29.89219,1.76398c-0.09281,-1.29937 -0.09281,-1.29937 -0.1875,-2.625c-1.15669,-4.80472 -3.71892,-7.83971 -7.6875,-10.75c-4.62455,-1.36016 -8.01537,-1.19069 -12.3125,1c-3.06004,2.58404 -4.93602,4.83855 -6.8125,8.375c-0.13581,2.62782 -0.13581,2.62782 0,5c-1.07324,-0.01189 -1.07324,-0.01189 -2.16817,-0.02402c-10.03036,-0.05987 -20.02753,0.31093 -30.04834,0.70737c-1.92924,0.07446 -3.85849,0.1487 -5.78775,0.22274c-5.27245,0.20297 -10.54478,0.40906 -15.81708,0.61568c-5.69642,0.22269 -11.39294,0.44246 -17.08946,0.66259c-9.85999,0.38141 -19.71992,0.76466 -29.57979,1.14917c-14.2556,0.55592 -28.51131,1.10906 -42.76704,1.66153c-23.13092,0.89649 -46.26174,1.79522 -69.39252,2.69537c-22.46479,0.87423 -44.92963,1.7474 -67.39453,2.61914c-0.69302,0.02689 -1.38605,0.05379 -2.10008,0.08149c-6.95994,0.27009 -13.91989,0.54014 -20.87983,0.81019c-58.32527,2.263 -116.65039,4.52962 -174.97541,6.79875c0,1.65 0,3.3 0,5c22.00048,0.31971 43.93418,-0.55831 65.91219,-1.43723c5.33784,-0.21232 10.67591,-0.41867 16.01396,-0.62577c9.22191,-0.35856 18.44368,-0.72071 27.66536,-1.08533c13.34883,-0.52775 26.69789,-1.04927 40.04703,-1.56922c21.68679,-0.84483 43.37343,-1.69373 65.05995,-2.54563c1.29424,-0.05084 2.58848,-0.10168 3.92194,-0.15407c2.61951,-0.1029 5.23902,-0.2058 7.85853,-0.3087c1.94818,-0.07653 1.94818,-0.07653 3.93571,-0.1546c1.29996,-0.05107 2.59992,-0.10214 3.93927,-0.15475c14.46052,-0.56799 28.92108,-1.13494 43.38166,-1.70152c1.94396,-0.07616 1.94396,-0.07616 3.92721,-0.15387c21.62586,-0.84725 43.25182,-1.69216 64.87782,-2.53575c13.31434,-0.51951 26.62858,-1.04133 39.94271,-1.56618c9.1166,-0.35928 18.23328,-0.71655 27.35002,-1.07227c5.25362,-0.20506 10.50719,-0.4111 15.76067,-0.61973c4.8163,-0.19126 9.6327,-0.37979 14.44919,-0.56623c1.73438,-0.06761 3.46872,-0.1362 5.20301,-0.20592c5.25058,-0.21075 10.50103,-0.39586 15.75377,-0.54323c1.07657,-0.03258 1.07657,-0.03258 2.17488,-0.06582c2.07677,-0.05701 4.15298,-0.09526 6.23028,-0.12686c1.18287,-0.02246 2.36574,-0.04491 3.58446,-0.06805c4.50873,0.3905 6.12609,1.88199 9.01038,5.26073c3.10953,1.55477 5.56267,1.28644 9,1c4.08918,-2.16032 6.13336,-3.82853 8,-8c0.75181,0.00909 1.50361,0.01819 2.2782,0.02755c11.35772,0.07316 22.68353,-0.3713 34.03079,-0.81133c2.25312,-0.08542 4.50624,-0.17061 6.75937,-0.25559c6.1632,-0.23315 12.32626,-0.46963 18.48931,-0.70671c5.97239,-0.22924 11.94488,-0.45597 17.91737,-0.68283c15.97774,-0.60708 31.95527,-1.21961 47.93277,-1.83289c7.55874,-0.29011 15.1175,-0.57959 22.67626,-0.86901c25.88172,-0.99105 51.76338,-1.9834 77.6449,-2.97975c1.6221,-0.06244 3.2442,-0.12488 4.86631,-0.18732c1.20657,-0.04645 1.20657,-0.04645 2.43752,-0.09383c4.07517,-0.15687 8.15033,-0.31373 12.2255,-0.47059c0.80871,-0.03113 1.61742,-0.06227 2.45064,-0.09434c26.26322,-1.01091 52.52672,-2.01446 78.79039,-3.01367c27.78019,-1.05695 55.56013,-2.12056 83.33977,-3.19182c3.04651,-0.11746 6.09301,-0.23489 9.13952,-0.35229c0.75011,-0.02891 1.50022,-0.05783 2.27307,-0.08761c12.08423,-0.4656 24.16869,-0.9251 36.25323,-1.38241c12.13048,-0.45921 24.26068,-0.92519 36.39063,-1.39812c6.57443,-0.25615 13.14896,-0.50908 19.72382,-0.75415c6.01138,-0.22413 12.02238,-0.45667 18.03317,-0.69607c2.18121,-0.08536 4.36255,-0.16757 6.54401,-0.2464c2.95191,-0.10713 5.90316,-0.22547 8.85452,-0.34676c0.85825,-0.02844 1.7165,-0.05687 2.60077,-0.08617c3.98292,-0.1755 6.87318,-0.55188 10.34816,-2.48789c-0.66,-0.99 -1.32,-1.98 -2,-3c-2.07475,-0.44844 -2.07475,-0.44844 -4.54355,-0.35696c-1.48988,0.00012 -1.48988,0.00012 -3.00987,0.00025c-1.68938,0.02745 -1.68938,0.02745 -3.41289,0.05546c-1.83456,0.016 -1.83456,0.016 -3.70618,0.03233c-20.07196,0.22676 -40.13928,1.1555 -60.19471,1.94512z"/>
   <path id="svg_3" fill="#ffffff" d="m1752.5,369.5c1.16389,0.00264 1.16389,0.00264 2.35129,0.00534c40.32581,0.20264 76.11955,15.72764 105.14871,43.49466c0.67031,0.61875 1.34063,1.2375 2.03125,1.875c27.17201,25.87811 42.11557,64.46907 43.17188,101.52734c0.61218,43.25227 -14.70853,80.29054 -44.20313,111.59766c-0.93006,1.00934 -0.93006,1.00934 -1.87891,2.03906c-15.9379,16.70319 -37.29988,28.51581 -58.99609,35.89844c-0.85529,0.29463 -1.71059,0.58926 -2.5918,0.89282c-5.82931,1.89746 -11.41842,2.79882 -17.5332,3.16968c-0.12375,-0.80437 -0.2475,-1.60875 -0.375,-2.4375c-0.20625,-0.84562 -0.4125,-1.69125 -0.625,-2.5625c-0.66,-0.33 -1.32,-0.66 -2,-1c0,0.99 0,1.98 0,3c-0.66,0 -1.32,0 -2,0c-0.33,1.65 -0.66,3.3 -1,5c-7.25327,0.95538 -14.37556,1.18318 -21.6875,1.1875c-1.1015,0.01225 -2.20301,0.02449 -3.33789,0.03711c-10.59846,0.01919 -10.59846,0.01919 -14.97461,-2.22461c-0.72694,-1.97889 -1.39816,-3.97955 -2,-6c-2.03244,-0.96877 -2.03244,-0.96877 -4,-1c0.495,3.465 0.495,3.465 1,7c-6.47698,-0.55758 -12.35489,-1.71676 -18.5625,-3.625c-1.30155,-0.3976 -1.30155,-0.3976 -2.62939,-0.80322c-29.30607,-9.21355 -56.2008,-26.97062 -74.80811,-51.57178c-0.80051,-1.03512 -1.60102,-2.07023 -2.42578,-3.13672c-24.1037,-31.86679 -33.6736,-72.33701 -28.55835,-111.78882c4.6001,-31.50409 18.60133,-59.60981 39.98413,-83.07446c0.85078,-0.93457 1.70156,-1.86914 2.57812,-2.83203c27.86263,-29.15565 67.89915,-44.91385 107.92188,-44.66797zm-76.5,70.5c-1.66244,1.67088 -3.32845,3.33823 -5,5c-20.83526,21.24673 -30.40755,49.62311 -30.30273,78.98584c0.60771,31.40424 14.4516,58.08697 36.34179,80.06104c22.8935,21.43586 52.40961,29.95207 83.25098,29.08496c28.26674,-1.37514 56.20264,-15.06682 75.56934,-35.61621c21.08504,-24.77878 31.22402,-53.94388 29.14062,-86.51563c-2.02941,-23.21138 -11.40119,-44.02405 -26,-62c-0.86045,-1.09055 -0.86045,-1.09055 -1.73828,-2.20312c-4.10332,-4.97491 -8.85868,-8.91779 -13.90625,-12.91407c-2.35547,-1.88281 -2.35547,-1.88281 -4.35547,-3.88281c-2.37472,-0.32735 -2.37472,-0.32735 -5.17772,-0.3078c-1.09752,-0.0172 -2.19504,-0.0344 -3.32582,-0.05212c-1.20983,-0.00852 -2.41965,-0.01704 -3.66614,-0.02582c-1.90514,-0.02453 -1.90514,-0.02453 -3.84877,-0.04956c-4.22163,-0.05248 -8.4433,-0.08308 -12.66514,-0.11157c-1.45529,-0.01073 -2.91058,-0.02148 -4.36587,-0.03227c-6.05891,-0.04328 -12.11782,-0.08074 -18.17686,-0.10324c-8.66883,-0.03241 -17.33587,-0.09857 -26.00403,-0.21281c-6.10122,-0.07764 -12.20196,-0.11649 -18.30367,-0.12704c-3.64022,-0.00728 -7.27853,-0.031 -10.91822,-0.0962c-4.07225,-0.0719 -8.14068,-0.06336 -12.21353,-0.04856c-1.78741,-0.04922 -1.78741,-0.04922 -3.61093,-0.09943c-9.76809,0.14473 -14.28085,4.26889 -20.7233,11.26642z"/>
   <path id="svg_4" fill="#ffffff" d="m1702.38184,436.03076c1.20938,-0.01869 2.41876,-0.03738 3.66479,-0.05664c3.2942,-0.04222 6.58647,-0.05311 9.88087,-0.04613c2.76303,0.00228 5.52578,-0.01613 8.28874,-0.03398c6.52741,-0.04132 13.05412,-0.04524 19.58162,-0.02634c6.70215,0.0187 13.40155,-0.0287 20.10319,-0.10845c5.7814,-0.06625 11.56192,-0.08925 17.34368,-0.07889c3.4412,0.00566 6.88035,-0.00457 10.32118,-0.05732c24.75594,-0.30358 24.75594,-0.30358 32.38429,6.59623c2.68976,2.8533 2.68976,2.8533 5.0498,5.78076c0.93349,1.03273 1.874,2.05915 2.82148,3.07907c19.25024,21.12347 27.3975,49.31712 26.33087,77.42825c-1.77402,29.02682 -15.81648,54.2966 -37.15235,73.49268c-21.87355,18.34188 -49.94231,25.71479 -78,24c-27.98419,-2.68931 -52.51138,-16.05565 -71,-37c-18.34254,-23.08476 -26.42693,-50.96527 -23.79345,-80.30078c2.39832,-20.41972 11.2361,-40.2847 24.79345,-55.69922c0.6484,-0.77988 1.2968,-1.55977 1.96485,-2.36328c8.24587,-9.71544 14.35273,-14.6975 27.41699,-14.60596zm32.61816,54.96924c-0.69222,0.4241 -1.38445,0.8482 -2.09765,1.28515c-7.23089,4.85213 -12.00609,11.9287 -14.42969,20.27344c-1.95765,10.11181 -0.30808,19.14177 5.03516,27.91797c5.20181,7.23415 11.82825,12.23856 20.49218,14.52344c9.23297,1.00307 19.05311,1.30343 27,-4c0.69223,-0.4241 1.38446,-0.8482 2.09766,-1.28516c7.23089,-4.85213 12.00608,-11.92869 14.42969,-20.27344c1.95764,-10.11181 0.30808,-19.14177 -5.03516,-27.91796c-5.20181,-7.23415 -11.82825,-12.23856 -20.49219,-14.52344c-9.23296,-1.00308 -19.0531,-1.30344 -27,4z"/>
   <path id="svg_5" fill="#ffffff" d="m1750.15771,249.99976c15.05102,0.00115 30.10103,0.0612 45.15165,0.16779c3.08922,0.01971 6.17842,0.03317 9.26768,0.04495c22.81387,0.09709 44.91937,0.76174 67.42294,4.7875c2.06892,0.35839 4.13785,0.71671 6.20679,1.07496c13.88353,2.42956 13.88353,2.42956 19.79321,6.92504c-0.92724,4.52029 -2.78627,7.04005 -5.875,10.3125c-7.08112,7.68405 -9.73202,16.50767 -10.23047,26.88282c0.31062,5.86721 3.33012,9.62006 7.10547,13.80468c0.70254,0.79664 1.40508,1.59329 2.12891,2.41407c3.69234,3.32562 7.68223,5.46475 12.05859,7.77343c1.62009,0.8655 3.23866,1.73386 4.85547,2.60547c0.7118,0.37665 1.42361,0.7533 2.15698,1.14136c1.80005,1.06567 1.80005,1.06567 3.80005,3.06567c0.45483,2.07764 0.45483,2.07764 0.74609,4.67969c0.17028,1.46554 0.17028,1.46554 0.344,2.9607c0.11464,1.06742 0.22929,2.13484 0.34741,3.23461c0.1256,1.1119 0.25121,2.2238 0.38062,3.36939c0.26627,2.37364 0.52826,4.74777 0.78637,7.12231c0.38497,3.53651 0.78348,7.07126 1.18457,10.60596c2.78506,24.8568 4.46847,49.65857 5.33594,74.65234c0.08676,2.38674 0.174,4.77346 0.26172,7.16016c0.20989,5.7381 0.41403,11.47637 0.61328,17.21484c-2.64,0 -5.28,0 -8,0c-0.33,-0.99 -0.66,-1.98 -1,-3c-1.79495,-1.13784 -1.79495,-1.13784 -4,-2c-0.75797,-0.33 -1.51594,-0.66 -2.29688,-1c-0.80953,-0.33 -1.61906,-0.66 -2.45312,-1c-0.87914,-0.36351 -1.75828,-0.72703 -2.66406,-1.10156c-2.3697,-0.82331 -4.23938,-1.06829 -6.71094,-1.27344c-3.18336,-0.7258 -3.87733,-1.62831 -5.79688,-4.36718c-1.31067,-2.26449 -2.4691,-4.54938 -3.63281,-6.89844c-1.37308,-2.72685 -2.82282,-4.80931 -4.80006,-7.16589c-8.1805,-9.75378 -9.29461,-18.13814 -9.68041,-30.58411c-0.09131,-1.83954 -0.1868,-3.67888 -0.28624,-5.51801c-0.24887,-4.8018 -0.44312,-9.60423 -0.62477,-14.40899c-0.19349,-4.87744 -0.43662,-9.75237 -0.67688,-14.62769c-0.30961,-6.33116 -0.60138,-12.66236 -0.86135,-18.99575c0.39556,-14.35569 0.39556,-14.35569 -5.1406,-26.80894c-0.45375,-0.4125 -0.9075,-0.825 -1.375,-1.25c-4.6614,4.16984 -7.51676,8.85861 -10.625,14.25c-3.94757,6.72035 -7.98002,13.35433 -12.25,19.875c-3.84708,5.88012 -7.58804,11.80099 -11.125,17.875c-1.65,-0.33 -3.3,-0.66 -5,-1c-0.41832,-5.16702 0.71008,-7.91486 3.375,-12.3125c0.35868,-0.60118 0.71736,-1.20237 1.08691,-1.82177c0.77228,-1.29341 1.54979,-2.5837 2.33204,-3.8711c1.19951,-1.98382 2.37452,-3.98008 3.54199,-5.98291c3.58564,-6.1466 7.19766,-12.2713 10.93359,-18.32812c0.54753,-0.89381 1.09506,-1.78761 1.65918,-2.7085c1.06671,-1.73843 2.14126,-3.47208 3.22461,-5.20019c2.62982,-4.29804 4.40902,-7.65357 4.84668,-12.77491c0.33,-0.99 0.66,-1.98 1,-3c-0.33,-0.66 -0.66,-1.32 -1,-2c-12.36161,-0.73336 -24.65521,-1.11244 -37.03763,-1.01831c-19.67255,0.14267 -39.30366,-0.27738 -58.96237,-0.98169c0,0.66 0,1.32 0,2c0.99,0 1.98,0 3,0c0,0.99 0,1.98 0,3c-2.97,0.495 -2.97,0.495 -6,1c0.00444,0.5468 0.00888,1.09359 0.01346,1.65696c0.04415,5.67731 0.07437,11.35457 0.0964,17.03201c0.01008,2.12046 0.02374,4.24091 0.04102,6.36133c0.02418,3.04316 0.03559,6.08615 0.04443,9.12939c0.01032,0.95213 0.02065,1.90425 0.03128,2.88523c0.00015,0.88076 0.00031,1.76152 0.00046,2.66897c0.00444,0.77721 0.00888,1.55443 0.01346,2.35519c-0.24051,1.91092 -0.24051,1.91092 -2.24051,3.91092c-4.55556,-0.55555 -4.55556,-0.55555 -6,-2c-0.09278,-1.3816 -0.11747,-2.76788 -0.11353,-4.15258c0.00008,-0.88084 0.00016,-1.76168 0.00023,-2.66921c0.00775,-1.43593 0.00775,-1.43593 0.01564,-2.90086c0.00213,-1.46282 0.00213,-1.46282 0.00429,-2.95519c0.00562,-3.12825 0.01817,-6.25643 0.03087,-9.38466c0.00501,-2.11523 0.00958,-4.23046 0.01367,-6.3457c0.01105,-5.19729 0.02781,-10.39454 0.04883,-15.5918c-2.97,-0.495 -2.97,-0.495 -6,-1c0,-0.99 0,-1.98 0,-3c0.99,0 1.98,0 3,0c0,-0.66 0,-1.32 0,-2c-0.88107,0.0303 -1.76215,0.06059 -2.66992,0.0918c-18.97285,0.63405 -37.91418,0.97376 -56.89795,0.89795c-12.17339,-0.04451 -24.28503,0.1152 -36.43213,1.01025c-1.29792,3.89378 -0.47141,6.3183 1,10c4.13612,8.12334 8.81585,15.98439 13.375,23.875c0.65758,1.13954 1.31517,2.27907 1.99268,3.45313c4.00242,6.91498 8.06428,13.77993 12.31201,20.54687c2.25834,3.63474 2.41354,5.83644 2.32031,10.125c-1.65,0.33 -3.3,0.66 -5,1c-0.65484,-1.07894 -1.30969,-2.15789 -1.98438,-3.26953c-6.42774,-10.56753 -12.96081,-21.06243 -19.60205,-31.49707c-1.36796,-2.16133 -2.71911,-4.33228 -4.06591,-6.50683c-0.80331,-1.28391 -1.60669,-2.56776 -2.41016,-3.85157c-1.03834,-1.67449 -1.03834,-1.67449 -2.09766,-3.38281c-1.66307,-2.75294 -1.66307,-2.75294 -4.83984,-3.49219c-0.99,2.31 -1.98,4.62 -3,7c-0.33,0 -0.66,0 -1,0c-1.14668,13.87874 -2.08552,27.73794 -2.63199,41.65195c-0.17559,4.34895 -0.37778,8.69676 -0.57854,13.0446c-0.16852,3.70122 -0.3193,7.40173 -0.43595,11.10497c-0.97189,30.06884 -0.97189,30.06884 -9.89991,39.54663c-2.50943,2.71219 -3.81343,5.07053 -5.2785,8.40991c-2.11905,4.77897 -4.19218,8.14335 -9.08917,10.12476c-2.79543,0.92494 -5.59919,1.60687 -8.47657,2.22265c-3.42092,0.84783 -4.98501,1.67633 -7.60937,3.89453c-0.66,0 -1.32,0 -2,0c-0.33,0.99 -0.66,1.98 -1,3c-2.64,0 -5.28,0 -8,0c0.91973,-28.57636 1.8572,-57.10652 4.75458,-85.56036c0.2706,-2.68995 0.53006,-5.38085 0.78888,-8.07196c0.48234,-4.98156 0.99327,-9.95954 1.52328,-14.93625c0.20383,-1.93834 0.40075,-3.87742 0.59039,-5.8172c0.26675,-2.69722 0.56261,-5.3897 0.86631,-8.08298c0.07404,-0.80549 0.14809,-1.61099 0.22438,-2.4409c0.45479,-3.76291 0.91891,-5.74844 3.5991,-8.49806c2.1732,-1.30428 4.27894,-2.54102 6.57886,-3.6001c9.89638,-4.76031 17.25484,-9.20413 22.27344,-19.4375c2.56837,-8.19373 -0.48088,-18.12911 -4.19922,-25.55469c-2.55024,-3.83988 -5.31924,-7.40956 -8.67188,-10.58203c-1.83487,-1.959 -1.97572,-3.81021 -2.32812,-6.41797c7.69629,-5.85455 16.67344,-6.39949 26,-8c1.00163,-0.17276 2.00325,-0.34553 3.03523,-0.52352c20.43137,-3.41975 40.47889,-4.18253 61.15539,-4.27561c2.66326,-0.01358 5.32639,-0.03365 7.98959,-0.05569c14.65924,-0.12006 29.31785,-0.14429 43.97752,-0.14542zm-145.86476,98.0354c-8.70986,12.1497 -9.16736,25.45594 -9.9314,39.88355c-0.17427,3.27259 -0.37432,6.54285 -0.57837,9.81372c-0.12325,2.10342 -0.24505,4.20694 -0.36523,6.31054c-0.05824,0.96585 -0.11647,1.93169 -0.17647,2.92681c-0.90194,10.09503 -0.90194,10.09503 2.43037,19.04585c6.85081,2.89665 16.15699,2.71076 23.32813,0.98437c3.44555,-3.28801 3.53951,-6.86299 3.72363,-11.37963c0.04106,-0.73716 0.08212,-1.47431 0.12442,-2.2338c0.13199,-2.43435 0.2439,-4.86916 0.35507,-7.30453c0.08679,-1.69914 0.17459,-3.39822 0.26337,-5.09725c0.18323,-3.563 0.35706,-7.12629 0.52374,-10.69011c0.21307,-4.54884 0.44463,-9.09649 0.68273,-13.64408c0.18256,-3.5112 0.35751,-7.02274 0.53,-10.53444c0.08277,-1.67568 0.1673,-3.35127 0.25368,-5.02676c0.67783,-12.07742 0.67783,-12.07742 -0.45664,-24.0894c-1.03254,-1.24076 -1.03254,-1.24076 -3.25,-1.25c-6.98022,0.63457 -13.128,7.12401 -17.45703,12.28516zm277.70703,-12.03516c-1.82001,3.86632 -2.19335,6.69101 -1.96753,10.94165c0.05699,1.17636 0.11397,2.35271 0.17268,3.56472c0.07281,1.26762 0.14562,2.53525 0.22063,3.84129c0.06871,1.33495 0.13641,2.66994 0.20317,4.00499c0.17881,3.52249 0.37102,7.04413 0.56612,10.56575c0.1922,3.50922 0.37225,7.01905 0.55298,10.52887c0.21067,4.08447 0.42387,8.16873 0.65042,12.25235c0.32427,5.87139 0.63182,11.73902 0.82565,17.6163c0.03393,0.93114 0.06787,1.86228 0.10283,2.82164c0.05844,1.67489 0.10595,3.35022 0.13968,5.02579c0.11713,3.17337 0.3486,5.49723 1.87981,8.31004c3.86648,3.56963 10.68181,2.58593 15.65356,2.52661c6.05745,-0.68571 6.05745,-0.68571 11,-4c1.10352,-6.70786 1.00576,-13.11943 0.61719,-19.88671c-0.05615,-1.01948 -0.11229,-2.03895 -0.17014,-3.08931c-0.12198,-2.14748 -0.24829,-4.29472 -0.37869,-6.4417c-0.19173,-3.24216 -0.35312,-6.48493 -0.51367,-9.72876c-0.90643,-16.24566 -2.84082,-29.62352 -14.55469,-41.85352c-0.59039,-0.63035 -1.18078,-1.2607 -1.78906,-1.91015c-4.20203,-4.05813 -7.40454,-4.88611 -13.21094,-5.08985z"/>
   <path id="svg_6" fill="#ffffff" d="m1599,618c11.18353,7.41984 14.12646,19.55247 17,32c2.39989,12.22221 2.23084,24.59877 2,37c-0.54189,0.13986 -1.08378,0.27973 -1.64209,0.42383c-19.37279,5.0747 -36.33642,12.95719 -54.10791,22.01367c-1.04928,0.53181 -1.04928,0.53181 -2.11975,1.07437c-22.85867,11.62147 -44.81487,25.26631 -54.13025,50.48813c-6.71985,21.37363 -6.38457,45.84443 -7,68c-8.58,0 -17.16,0 -26,0c-0.02742,-6.93754 -0.04873,-13.87494 -0.0625,-20.8125c-0.00261,-1.02725 -0.00522,-2.0545 -0.0079,-3.11288c-0.02536,-12.15583 0.10825,-24.24688 0.7579,-36.38712c0.80894,-15.68238 0.80894,-15.68238 -4.25781,-30.23828c-2.65801,-4.55348 -2.30757,-9.36814 -1.42969,-14.44922c3.68396,-7.42132 12.6769,-12.66325 19.15039,-17.58545c2.34073,-1.79015 4.65217,-3.61559 6.9624,-5.44482c2.95252,-2.33589 5.91998,-4.65259 8.88721,-6.96973c0.66935,-0.52384 1.33869,-1.04769 2.02832,-1.5874c9.72357,-7.59161 19.6272,-14.69649 29.97168,-21.4126c10.09777,-6.58604 19.33172,-12.75503 27.1875,-21.99609c2.40058,-2.6541 5.05743,-4.91162 7.77344,-7.23438c6.06482,-5.26315 10.98845,-10.75064 15.39843,-17.47265c3.98041,-5.57257 6.74004,-8.3415 13.64063,-6.29688z"/>
   <path id="svg_7" fill="#ffffff" d="m1915,618c3.01855,2.67187 5.19031,5.60926 7.4375,8.9375c6.61058,9.2301 14.99857,17.23648 23.78125,24.40234c1.78125,1.66016 1.78125,1.66016 3.96484,4.48438c3.18989,3.89681 7.16659,6.3642 11.37891,9.05078c0.80357,0.52465 1.60714,1.0493 2.43506,1.58984c2.32893,1.51995 4.66464,3.02889 7.00244,4.53516c12.97666,8.4248 25.2514,17.68313 37.26685,27.41992c3.35687,2.71202 6.74813,5.36067 10.20581,7.94336c0.75418,0.56534 1.50836,1.13067 2.2854,1.71314c1.4428,1.07703 2.89084,2.14713 4.34521,3.20849c11.888,8.89052 11.888,8.89052 13.72095,15.84009c-0.27411,5.76407 -0.96575,9.6902 -3.79688,14.6875c-4.36365,9.29142 -3.00187,20.49373 -2.48779,30.43066c0.57699,11.96024 0.54945,23.91013 0.52295,35.88184c-0.00195,1.0315 -0.00391,2.063 -0.00592,3.12576c-0.01213,5.91647 -0.03329,11.83279 -0.05658,17.74924c-8.58,0 -17.16,0 -26,0c-0.10313,-3.7125 -0.20625,-7.425 -0.3125,-11.25c-0.4992,-14.33433 -1.81289,-28.53239 -3.6875,-42.75c-0.1501,-1.15242 -0.1501,-1.15242 -0.30322,-2.32812c-2.78902,-19.85037 -14.39063,-34.52246 -29.78272,-46.59766c-9.13692,-6.50363 -19.27603,-11.34486 -29.31152,-16.28394c-4.79484,-2.36247 -9.51645,-4.81321 -14.19824,-7.39184c-7.74334,-4.25125 -15.49714,-7.46575 -23.89258,-10.20703c-5.52062,-1.87296 -5.52062,-1.87296 -7.51172,-3.19141c-0.84961,-2.21143 -0.84961,-2.21143 -1.34375,-4.94531c-0.19465,-0.99516 -0.3893,-1.99032 -0.58984,-3.01563c-0.18692,-1.04414 -0.37383,-2.08828 -0.56641,-3.16406c-1.44014,-8.37574 -1.44014,-8.37574 -4.71484,-16.14062c-3.86097,-7.0654 0.25851,-16.2338 2.26171,-23.56641c2.62479,-8.29684 6.31786,-15.76756 14.01172,-20.41016c2.96693,-1.15811 4.92541,-0.63748 7.94141,0.24219z"/>
   <path id="svg_8" fill="#ffffff" d="m1585,519c3.56734,0.07755 5.45733,0.56285 8.25,2.8125c1.72842,3.14819 2.19452,5.10846 2.72266,8.60547c0.16806,1.07081 0.33612,2.14161 0.50927,3.24487c0.17097,1.10126 0.34193,2.20253 0.51807,3.33716c4.96769,29.88399 13.82663,57.04035 33,81c0.47051,0.58862 0.94102,1.17724 1.42578,1.78369c15.61362,19.29559 34.61626,33.17291 56.88672,43.84131c0.61883,0.30075 1.23766,0.60151 1.87524,0.91138c3.29453,1.53372 6.36995,2.65522 9.94117,3.35425c10.40117,2.26519 15.09178,7.05194 20.84234,15.88336c1.75041,2.76859 3.42929,5.58078 5.12641,8.38226c5.61301,9.00019 12.32558,12.70671 22.33984,15.53125c9.01932,1.09992 16.75014,-0.09623 24.8125,-4.4375c7.55723,-6.18319 10.79041,-13.23969 14.22852,-22.21875c2.71526,-6.55985 2.71526,-6.55985 6.84179,-8.97266c1.2143,-0.34933 2.4286,-0.69867 3.67969,-1.05859c1.19496,-0.43699 2.38992,-0.87398 3.62109,-1.32422c0.92656,-0.33004 0.92656,-0.33004 1.87183,-0.66675c10.1539,-3.63704 20.19783,-7.99564 29.31958,-13.79809c0.72188,-0.39961 1.44375,-0.79922 2.1875,-1.21094c2.3125,0.8125 2.3125,0.8125 4,2c0,0.66 0,1.32 0,2c0.5775,0.06187 1.155,0.12375 1.75,0.1875c6.15151,2.22138 9.18048,10.65706 11.82813,16.22656c2.49209,6.28501 2.14905,12.10901 0.42187,18.58594c-1.485,-1.485 -1.485,-1.485 -3,-3c-0.67764,0.32686 -1.35529,0.65372 -2.05347,0.99048c-37.35961,17.91283 -72.59141,26.61008 -114.13403,22.75952c-0.72583,-0.06658 -1.45167,-0.13316 -2.19949,-0.20175c-11.09137,-1.03571 -21.9022,-2.39386 -32.61301,-5.54825c-0.71011,-0.20464 -1.42022,-0.40928 -2.15186,-0.62012c-9.91568,-2.91907 -19.3001,-6.70551 -28.59765,-11.22046c-10.39284,-4.93144 -21.14342,-6.62004 -32.50049,-7.84692c-1.13824,-0.12955 -2.27648,-0.2591 -3.44922,-0.39258c-2.76621,-0.31381 -5.533,-0.62034 -8.30078,-0.91992c-0.04488,-0.97646 -0.08975,-1.95293 -0.13599,-2.95898c-0.17332,-3.70585 -0.36153,-7.41082 -0.55371,-11.11573c-0.08041,-1.58802 -0.15705,-3.17624 -0.22949,-4.76465c-0.81186,-20.56428 -0.81186,-20.56428 -7.45581,-39.78564c-0.56461,-1.08539 -1.12922,-2.17078 -1.71094,-3.28906c-2.93604,-4.73363 -5.99506,-8.947 -10.91406,-11.77344c-0.68578,-0.40734 -1.37156,-0.81469 -2.07812,-1.23437c-1.54257,-0.86534 -3.10441,-1.69627 -4.67188,-2.51563c-5.24818,-3.64457 -7.09203,-9.16432 -8.3125,-15.1875c-0.1621,-0.7914 -0.3242,-1.58281 -0.49121,-2.39819c-3.65764,-19.63374 -4.68507,-40.16287 -4.75879,-60.10181c-0.00548,-1.08354 -0.01096,-2.16708 -0.0166,-3.28345c0.06981,-7.33226 0.06981,-7.33226 2.3291,-9.59155z"/>
   <path id="svg_9" fill="#ffffff" d="m2097.75,817.8125c4.85833,4.72338 7.11535,9.56032 8.25,16.1875c0.01613,3.63774 0.01613,3.63774 -0.31812,7.41284c-0.05826,0.70112 -0.11653,1.40224 -0.17656,2.12461c-0.19634,2.32602 -0.41139,4.64991 -0.62641,6.97427c-0.14499,1.67418 -0.28871,3.34848 -0.43126,5.02287c-0.3084,3.59879 -0.62443,7.1968 -0.94588,10.79445c-0.51202,5.75014 -0.99589,11.50246 -1.47491,17.25543c-0.75252,9.01857 -1.5199,18.03576 -2.29857,27.05211c-0.44512,5.15477 -0.88775,10.30972 -1.32424,15.46523c-0.43249,5.10821 -0.87092,10.21588 -1.31366,15.32321c-0.16508,1.91545 -0.32816,3.83107 -0.48906,5.74686c-0.22346,2.65523 -0.45458,5.30969 -0.68751,7.96411c-0.0629,0.76821 -0.12581,1.53642 -0.19061,2.32791c-0.89713,9.98526 -2.42165,17.75349 -10.09821,24.7861c-5.99557,4.84209 -12.11597,5.50438 -19.625,4.75c-5.90396,-1.40668 -10.79719,-3.89859 -14.37891,-8.94141c-5.55984,-9.10801 -4.69431,-18.23186 -3.75659,-28.5039c0.10393,-1.21581 0.20786,-2.43162 0.31494,-3.68427c0.28494,-3.31053 0.57773,-6.62017 0.87452,-9.92965c0.31038,-3.47862 0.61158,-6.95804 0.9141,-10.43735c0.50929,-5.84089 1.02562,-11.68112 1.54634,-17.521c0.60022,-6.73219 1.1899,-13.46524 1.7738,-20.19886c0.56403,-6.50223 1.13492,-13.00384 1.7091,-19.50518c0.24329,-2.75556 0.48432,-5.5113 0.72352,-8.26721c0.3351,-3.85593 0.68029,-7.71091 1.02649,-11.56586c0.09724,-1.13169 0.19448,-2.26339 0.29467,-3.42938c1.72035,-18.84027 1.72035,-18.84027 7.95802,-26.01593c9.96499,-7.98388 22.14843,-8.1749 32.75,-1.1875z"/>
   <path id="svg_10" fill="#ffffff" d="m1437,816c9.56925,8.04687 10.88066,17.21728 11.95802,29.01593c0.14586,1.69754 0.14586,1.69754 0.29467,3.42938c0.10918,1.21581 0.21837,2.43162 0.33087,3.68427c0.29573,3.30951 0.58607,6.6194 0.87338,9.92965c0.24137,2.77344 0.48635,5.54656 0.73127,8.31969c0.57798,6.54574 1.14962,13.09201 1.71731,19.63866c0.58402,6.73377 1.17898,13.46652 1.77928,20.19886c0.51685,5.80099 1.02678,11.60256 1.53127,17.40464c0.30059,3.45628 0.60375,6.91229 0.91364,10.36775c0.34531,3.85444 0.67618,7.71004 1.00579,11.56586c0.10331,1.13169 0.20662,2.26339 0.31306,3.42938c0.82269,9.87282 1.00177,18.92645 -5.44856,27.01593c-7.25575,6.16933 -13.62267,7.74962 -23,7c-6.43073,-1.25394 -11.15098,-4.73805 -15,-10c-2.40357,-4.93537 -3.55815,-9.30635 -4.03638,-14.78882c-0.07618,-0.76848 -0.15236,-1.53697 -0.23084,-2.32874c-0.25643,-2.62647 -0.49496,-5.25423 -0.73278,-7.88244c-0.18686,-1.98175 -0.37425,-3.96344 -0.5621,-5.9451c-0.63886,-6.80948 -1.24927,-13.62139 -1.85587,-20.43381c-0.16461,-1.84495 -0.16461,-1.84495 -0.33254,-3.72718c-0.57841,-6.48761 -1.15411,-12.97546 -1.72776,-19.46349c-0.5318,-6.01292 -1.07201,-12.02505 -1.61568,-18.03691c-0.52667,-5.82991 -1.04353,-11.66067 -1.55698,-17.49176c-0.21829,-2.46294 -0.43957,-4.92562 -0.66397,-7.38802c-0.31251,-3.43692 -0.61378,-6.87465 -0.91239,-10.3128c-0.09397,-1.00535 -0.18793,-2.0107 -0.28473,-3.04651c-0.83968,-9.94005 -0.38295,-17.31197 5.26202,-25.77942c8.06834,-8.51658 21.05546,-10.07664 31.25,-4.375z"/>
   <path id="svg_11" fill="#ffffff" d="m1931,374c101.31,0 202.62,0 307,0c0,6.6 0,13.2 0,20c-101.31,0 -202.62,0 -307,0c0,-6.6 0,-13.2 0,-20z"/>
   <path id="svg_12" fill="#ffffff" d="m1268,374c101.31,0 202.62,0 307,0c0,6.6 0,13.2 0,20c-101.31,0 -202.62,0 -307,0c0,-6.6 0,-13.2 0,-20z"/>
   <path id="svg_13" fill="#ffffff" d="m1745,65c4.95,0 9.9,0 15,0c0.65902,17.30966 1.31149,34.61954 1.95576,51.92976c0.29944,8.04128 0.60102,16.08247 0.90801,24.12346c0.26823,7.02598 0.53206,14.05211 0.79107,21.07843c0.13669,3.70451 0.27528,7.40891 0.41918,11.11315c0.34406,8.88587 0.64436,17.77163 0.87145,26.6613c0.03727,1.43118 0.07635,2.86231 0.117,4.29339c0.12633,4.45561 0.22493,8.91028 0.28447,13.3673c0.02234,1.40043 0.05316,2.80076 0.09313,4.20079c0.33312,12.12623 0.33312,12.12623 -2.83887,16.06409c-3.58154,2.98553 -5.78084,3.56206 -10.49573,3.52771c-3.7214,-0.6352 -5.5086,-2.69917 -8.10547,-5.35938c-1.17057,-2.34115 -1.13275,-3.71826 -1.14526,-6.32812c-0.0063,-0.92298 -0.0126,-1.84595 -0.01909,-2.7969c-0.0012,-1.03124 -0.00239,-2.06249 -0.00362,-3.12498c-0.00608,-1.66282 -0.00608,-1.66282 -0.01228,-3.35924c-0.00972,-3.79695 -0.00935,-7.5938 -0.00725,-11.39076c-0.00109,-1.97373 -0.00109,-1.97373 -0.0022,-3.98734c-0.01043,-46.67532 1.2056,-93.35022 2.1897,-140.01266z"/>
   <path id="svg_14" fill="#ffffff" d="m1922,520c2.83525,2.83525 1.2499,11.47088 1.25098,15.26001c-0.17217,19.60533 -1.2476,39.87481 -5.18848,59.11499c-0.21801,1.07592 -0.21801,1.07592 -0.44043,2.17358c-1.2236,5.23136 -3.2899,9.85222 -7.80957,12.95142c-0.92812,0.495 -1.85625,0.99 -2.8125,1.5c-9.89442,5.53417 -16.65042,14.08625 -20,25c-0.55143,3.33195 -0.85916,6.62692 -1,10c-6.04597,-3.21192 -13.52336,-8.39563 -16,-15c0.02682,-7.06174 3.54726,-10.81681 7.875,-16.125c18.85586,-24.24421 27.46205,-51.62386 31.66406,-81.73828c1.35684,-9.41738 1.35684,-9.41738 5.46094,-13.13672c2.68367,-1.34183 4.15281,-0.73005 7,0z"/>
   <path id="svg_15" fill="#ffffff" d="m1870,643c5.05684,2.71135 7.95666,6.06149 11.125,10.6875c0.43449,0.62793 0.86899,1.25587 1.31665,1.90283c7.56451,11.1397 11.70419,23.96428 10.05835,37.53467c-1.08059,5.31071 -2.28196,8.42388 -6.5,11.875c-3.84423,1.42069 -5.68307,1.09289 -9.625,-0.0625c-6.4499,-3.70272 -8.47755,-10.21379 -10.9375,-16.875c-4.09357,-10.96171 -4.09357,-10.96171 -9.625,-21.25c-3.25124,-5.91579 -4.216,-11.16282 -2.8125,-17.8125c3.21619,-6.91029 10.1354,-7.48476 17,-6z"/>
   <path id="svg_16" fill="#ffffff" d="m2015.8125,840.50391c1.05187,0.01934 2.10375,0.03867 3.1875,0.05859c1.05187,0.00129 2.10375,0.00258 3.1875,0.00391c2.8125,0.43359 2.8125,0.43359 4.46997,1.60059c1.89195,2.58315 1.68389,4.4171 1.6355,7.59472c-0.00967,1.11826 -0.01934,2.23653 -0.0293,3.38867c-0.02513,1.16725 -0.05027,2.3345 -0.07617,3.53711c-0.0203,1.76828 -0.0203,1.76828 -0.04102,3.57227c-0.03539,2.91387 -0.08476,5.82682 -0.14648,8.74023c0.7773,0.26684 1.55461,0.53368 2.35547,0.8086c3.1245,1.40764 4.3485,3.0955 5.92969,6.10547c1.253,3.6563 1.02584,7.27616 0.71484,11.08593c0.61875,0.26813 1.2375,0.53625 1.875,0.8125c2.125,1.1875 2.125,1.1875 4.125,4.1875c0.60193,3.09068 0.60627,5.90912 0,9c-2.6249,3.21551 -4.06489,4.7004 -8.14453,5.33204c-2.16797,0.04296 -2.16797,0.04296 -5.85547,-0.33204c-0.495,-0.495 -0.495,-0.495 -1,-1c-3.3957,-0.23691 -6.78417,-0.39641 -10.18555,-0.51757c-5.60117,-0.26914 -5.60117,-0.26914 -7.81445,-2.48243c-0.19968,-1.93028 -0.3971,-3.86085 -0.57813,-5.79296c-0.46318,-2.42313 -1.30584,-4.02373 -2.54687,-6.14454c-2.07934,-3.84111 -2.0976,-6.61368 -1.52734,-10.88671c0.65234,-2.17579 0.65234,-2.17579 2.16772,-4.4209c1.75062,-3.24848 1.86676,-5.33739 1.89087,-9.00879c0.02191,-1.18401 0.04383,-2.36801 0.06641,-3.58789c0.01825,-2.48438 0.03648,-4.96875 0.05468,-7.45313c0.02192,-1.18271 0.04383,-2.36543 0.06641,-3.58398c0.00709,-1.07838 0.01418,-2.15677 0.02148,-3.26782c0.58269,-4.32094 1.80557,-6.57472 6.19727,-7.34937z"/>
   <path id="svg_17" fill="#ffffff" d="m1487,840.5625c1.57781,-0.029 1.57781,-0.029 3.1875,-0.05859c2.8125,0.49609 2.8125,0.49609 4.46509,2.15112c1.70348,2.96466 1.71617,4.95168 1.7185,8.3606c0.01741,1.16917 0.03481,2.33835 0.05274,3.54296c0.00905,2.44531 0.01431,4.89062 0.01562,7.33594c0.11626,7.30417 0.95005,11.78349 4.56055,18.10547c0.59256,5.49999 -1.16639,9.39538 -4,14c-0.37662,2.02952 -0.37662,2.02952 -0.5625,4.1875c-0.4375,3.8125 -0.4375,3.8125 -2.4375,5.8125c-2.71157,0.28071 -5.34439,0.46568 -8.0625,0.5625c-4.85688,-0.23824 -4.85688,-0.23824 -8.9375,1.4375c-4.46825,0.4544 -7.72365,0.68522 -11.5,-1.9375c-2.93788,-3.5989 -3.27033,-5.38613 -2.96875,-9.90234c0.69024,-3.18087 2.09123,-4.99242 4.46875,-7.16016c0.66,0 1.32,0 2,0c-0.04641,-0.56848 -0.09281,-1.13695 -0.14063,-1.72266c-0.28189,-6.03062 0.47465,-9.42239 4.14063,-14.27734c2.64453,-1.19141 2.64453,-1.19141 5,-2c-0.02357,-1.11242 -0.02357,-1.11242 -0.04761,-2.24731c-0.0623,-3.35499 -0.10137,-6.70985 -0.13989,-10.06519c-0.02514,-1.16725 -0.05027,-2.33449 -0.07617,-3.53711c-0.0145,-1.67739 -0.0145,-1.67739 -0.0293,-3.38867c-0.01571,-1.03165 -0.03142,-2.06331 -0.04761,-3.12622c0.34058,-2.6355 0.34058,-2.6355 1.68311,-4.46851c2.50834,-1.76607 4.6292,-1.60078 7.65747,-1.60449z"/>
   <path id="svg_18" fill="#ffffff" d="m1766.625,496.0625c7.77667,4.67122 12.04835,11.2191 14.375,19.9375c1.24371,8.16026 -0.93707,15.08017 -5.25,22.00781c-3.85105,5.0545 -8.66354,8.21632 -14.75,9.99219c-9.40966,1.17382 -18.13511,0.91368 -26,-5c-5.87164,-5.02919 -9.22358,-11.90571 -10.38281,-19.51172c-0.37367,-7.93427 2.21258,-15.00704 7.00781,-21.30078c8.96669,-9.3662 23.24579,-11.46944 35,-6.125zm-30,13.5c-3.55337,5.33006 -3.21559,11.24447 -2.625,17.4375c2.52939,5.24615 6.17549,8.38599 11.1875,11.25c6.72994,1.79465 12.95289,1.48976 19.05469,-1.96875c3.38999,-2.47092 5.87507,-5.51577 7.75781,-9.28125c0.68912,-7.44475 0.63396,-12.98837 -4,-19c-5.81743,-5.39176 -10.8643,-5.34455 -18.53906,-5.28125c-5.90742,0.48006 -8.79533,2.48414 -12.83594,6.84375z"/>
   <path id="svg_19" fill="#ffffff" d="m1260,374c0,6.6 0,13.2 0,20c-6.29519,0.06938 -12.58901,0.12896 -18.88428,0.16479c-2.13546,0.01497 -4.27089,0.03534 -6.40625,0.06153c-11.97335,0.14301 -23.12475,0.13815 -34.70947,-3.22632c-1.18545,-0.33427 -2.37091,-0.66854 -3.59229,-1.01294c-5.94832,-1.70783 -5.94832,-1.70783 -8.40771,-2.98706c-0.82422,-2.12891 -0.82422,-2.12891 -1,-4c4.06485,-2.76789 8.14189,-4.01913 12.875,-5.125c1.02287,-0.2533 1.02287,-0.2533 2.06641,-0.51172c7.26444,-1.7573 14.48227,-2.55894 21.93359,-2.92578c0.84337,-0.04246 1.68674,-0.08492 2.55566,-0.12866c11.18434,-0.50223 22.37692,-0.39141 33.56934,-0.30884z"/>
   <path id="svg_20" fill="#ffffff" d="m2246,374c57.89806,-0.42712 57.89806,-0.42712 72,8c0.78516,2.12891 0.78516,2.12891 1,4c-12.30472,5.98526 -24.1735,8.16987 -37.74609,8.09766c-1.01112,-0.00142 -2.02223,-0.00283 -3.06398,-0.00429c-3.20918,-0.00557 -6.41828,-0.01812 -9.62743,-0.03087c-2.18424,-0.00502 -4.36849,-0.00958 -6.55273,-0.01367c-5.33664,-0.01014 -10.67313,-0.02972 -16.00977,-0.04883c0,-6.6 0,-13.2 0,-20z"/>
   <path id="svg_21" fill="#ffffff" d="m1720,675c1.68814,0.116 3.37551,0.24331 5.0625,0.375c0.93973,0.06961 1.87945,0.13922 2.84766,0.21094c3.08984,0.41406 3.08984,0.41406 6.33178,1.40747c5.65837,1.51559 11.32538,1.56841 17.14624,1.74951c2.10743,0.06944 4.21256,0.1655 6.31885,0.26294c1.35802,0.04785 2.71609,0.09413 4.07422,0.13867c1.21752,0.04488 2.43504,0.08975 3.68945,0.13599c4.1889,-0.33295 6.75139,-1.4907 10.5293,-3.28052c2.65234,-0.51172 2.65234,-0.51172 4.9375,-0.6875c1.15822,-0.09861 1.15822,-0.09861 2.33984,-0.19922c0.85272,-0.05607 0.85272,-0.05607 1.72266,-0.11328c-1.08263,8.05788 -6.4083,18.17264 -12.4375,23.75c-6.3876,4.60603 -13.81273,6.18937 -21.5625,5.25c-9.36217,-1.74994 -16.04189,-5.9458 -21.625,-13.70703c-1.13886,-1.69258 -2.26379,-3.39461 -3.375,-5.10547c-0.58395,-0.87076 -1.16789,-1.74152 -1.76953,-2.63867c-4.23047,-6.35561 -4.23047,-6.35561 -4.23047,-7.54883z"/>
   <path id="svg_31" fill="#ffffff" d="m1761.04688,508.75781c3.05049,1.91788 4.62278,3.96658 5.95313,7.24219c0.6359,4.05642 0.92954,8.18536 -0.98047,11.91406c-2.88564,3.60482 -5.82259,5.77416 -10.38672,6.42188c-5.74884,0.08954 -9.13599,-0.38751 -13.63282,-4.33594c-3.38697,-3.80832 -3.50886,-6.57099 -3.35546,-11.52344c0.52213,-3.63773 1.92149,-5.77214 4.35546,-8.47656c5.04806,-3.22453 12.49948,-3.296 18.04688,-1.24219z"/>
   <path id="svg_32" fill="#ffffff" d="m1752.375,9.6875c2.625,0.3125 2.625,0.3125 4.24609,1.75391c2.07049,3.84183 1.95559,7.50163 2.06641,11.80859c0.03344,0.90645 0.06687,1.81291 0.10132,2.74683c0.35962,10.99696 0.2969,22.00222 0.21118,33.00317c-4.62,0 -9.24,0 -14,0c0.06892,-6.03271 0.15691,-12.06474 0.26245,-18.09692c0.03322,-2.05136 0.06126,-4.1028 0.08399,-6.1543c0.0336,-2.95181 0.08591,-5.90279 0.14184,-8.85425c0.00639,-0.91476 0.01278,-1.82953 0.01936,-2.77202c0.12155,-5.28408 0.43971,-12.58927 6.86736,-13.43501z"/>
   <path id="svg_46" fill="#ffffff" d="m2809.51001,294.88647c1.56047,0.00016 3.12095,0.00585 4.6814,0.01587c1.22975,0.00212 1.22975,0.00212 2.48436,0.00429c2.62894,0.00561 5.25781,0.01817 7.88673,0.03087c1.77799,0.00501 3.55599,0.00957 5.33398,0.01367c4.36788,0.01105 8.73568,0.02832 13.10352,0.04883c0.1792,5.79882 0.1792,5.79882 -1.43359,7.60937c-9.4587,5.3839 -17.7999,6.1331 -28.56641,4.39063c-4.22768,-1.57643 -5.50634,-2.25952 -8,-6c-0.1875,-2.625 -0.1875,-2.625 0,-5c1,-1 1,-1 4.51001,-1.11353z"/>
   <path id="svg_47" fill="#ffffff" d="m663,295c5.25105,-0.02465 10.50208,-0.04284 15.75317,-0.05493c1.78777,-0.00504 3.57553,-0.01187 5.36329,-0.02051c2.56405,-0.01208 5.12805,-0.01779 7.69213,-0.02222c0.80417,-0.00516 1.60834,-0.01032 2.43688,-0.01564c1.91855,-0.00019 3.83698,0.05128 5.75453,0.1133c0.495,0.495 0.495,0.495 1,1c-0.35554,6.39964 -0.35554,6.39964 -2.76953,8.64844c-7.08904,4.29563 -16.36132,3.9914 -24.23047,2.35156c-8.20652,-3.20652 -8.20652,-3.20652 -11,-6c-0.04081,-1.99958 -0.04254,-4.00045 0,-6z"/>
   <path id="svg_52" fill="#ffffff" d="m1917,480c3.25235,4.87852 3.65588,10.20642 3,16c-0.80834,2.49081 -1.82332,4.64665 -3,7c-1.98,0 -3.96,0 -6,0c-1.99118,-4.97012 -2.24846,-9.12333 -2.125,-14.375c0.00902,-0.73605 0.01805,-1.47211 0.02734,-2.23047c0.02336,-1.79832 0.05922,-3.59647 0.09766,-5.39453c2.78863,-1.39432 4.92079,-1.2566 8,-1z"/>
   <path id="svg_53" fill="#ffffff" d="m1591.9375,479.875c3.0625,0.125 3.0625,0.125 5.0625,1.125c0.05434,2.54196 0.09383,5.08274 0.125,7.625c0.01676,0.71285 0.03352,1.4257 0.05078,2.16016c0.04107,4.47606 -0.48491,7.99433 -2.17578,12.21484c-1.98,0 -3.96,0 -6,0c-3.28149,-6.56298 -3.98679,-11.80887 -2.0625,-18.9375c1.39965,-4.03429 1.39965,-4.03429 5,-4.1875z"/>
   <path id="svg_54" fill="#ffffff" d="m1691,711c4.78788,0.84609 9.57087,1.69363 14.32544,2.71289c8.70758,1.86037 17.32162,3.04437 26.19116,3.79517c2.11535,0.18003 4.22893,0.37513 6.34278,0.57202c12.19662,1.10007 24.23038,1.07298 36.45312,0.41992c0.94295,-0.0477 1.8859,-0.09539 2.85742,-0.14453c2.27686,-0.11558 4.55352,-0.23407 6.83008,-0.35547c0,0.33 0,0.66 0,1c-6.09905,2.1339 -11.70072,2.30656 -18.12891,2.30078c-1.06669,0.00429 -2.13338,0.00857 -3.2324,0.01299c-2.25334,0.00572 -4.50669,0.00625 -6.76003,0.0019c-3.40585,-0.00314 -6.81081,0.02026 -10.21655,0.04566c-10.22662,0.02922 -19.81916,-0.06547 -29.76148,-2.63745c-4.50356,-1.1239 -9.03276,-1.44472 -13.65063,-1.78638c-1.72459,-0.12845 -3.44863,-0.26477 -5.17187,-0.41016c-0.73832,-0.05422 -1.47663,-0.10844 -2.23731,-0.1643c-1.84082,-0.36304 -1.84082,-0.36304 -3.84082,-2.36304c0,-0.99 0,-1.98 0,-3z"/>
   <path id="svg_55" fill="#ffffff" d="m2010,676c2.04297,0.11328 2.04297,0.11328 4,1c0.80078,1.85547 0.80078,1.85547 1.3125,4.1875c1.33716,4.71367 3.33824,6.56723 7.16406,9.46484c1.52344,1.34766 1.52344,1.34766 2.52344,4.16016c0,0.72188 0,1.44375 0,2.1875c-1,1 -1,1 -3.125,1.375c-4.23102,-0.55187 -6.85523,-2.41248 -9.875,-5.375c-3.40503,-4.75908 -4.7082,-9.09832 -4,-15c0.66,-0.66 1.32,-1.32 2,-2z"/>
   <path id="svg_56" fill="#ffffff" d="m1493,676c3.69231,0.69231 3.69231,0.69231 5,2c0.60683,5.94697 -0.56731,10.20227 -4,15c-3.052,2.99414 -5.64366,4.85571 -9.9375,5.3125c-0.68062,-0.10312 -1.36125,-0.20625 -2.0625,-0.3125c-0.8125,-1.6875 -0.8125,-1.6875 -1,-4c2.1875,-2.4375 2.1875,-2.4375 5,-5c3.50093,-3.80101 4.75077,-7.0031 6,-12c0.33,-0.33 0.66,-0.66 1,-1z"/>
   <path id="svg_64" fill="#ffffff" d="m1906,470c1.98,0 3.96,0 6,0c1.3544,2.70879 1.06501,5.00933 1,8c-2.31,-0.33 -4.62,-0.66 -7,-1c0,-2.31 0,-4.62 0,-7z"/>
   <path id="svg_65" fill="#ffffff" d="m1594,470c1.98,0 3.96,0 6,0c0,2.31 0,4.62 0,7c-2.31,0.33 -4.62,0.66 -7,1c-0.125,-5.75 -0.125,-5.75 1,-8z"/>
   <path id="svg_66" fill="#ffffff" d="m1687,439c0.66,0.33 1.32,0.66 2,1c-5.94,5.94 -11.88,11.88 -18,18c0,-4.19869 1.80189,-5.33537 4.625,-8.375c0.45423,-0.49025 0.90847,-0.98049 1.37646,-1.4856c3.14024,-3.34619 6.35497,-6.35878 9.99854,-9.1394z"/>
   <path id="svg_68" fill="#ffffff" d="m1859,643c0.99,0.33 1.98,0.66 3,1c-0.66,0 -1.32,0 -2,0c-0.2475,0.61875 -0.495,1.2375 -0.75,1.875c-1.25,2.125 -1.25,2.125 -5.25,4.125c0,3.63 0,7.26 0,11c-0.33,0 -0.66,0 -1,0c-0.92018,-10.53094 -0.92018,-10.53094 1.33594,-14.13281c1.66406,-1.61719 1.66406,-1.61719 4.66406,-3.86719z"/>
   <path id="svg_69" fill="#ffffff" d="m1800,715c-0.59813,0.28875 -1.19625,0.5775 -1.8125,0.875c-2.38078,1.17242 -2.38078,1.17242 -5.1875,3.125c-2.26172,-0.02344 -2.26172,-0.02344 -4.6875,-0.375c-0.80824,-0.11086 -1.61648,-0.22172 -2.44922,-0.33594c-0.61488,-0.09539 -1.22976,-0.19078 -1.86328,-0.28906c0,-0.33 0,-0.66 0,-1c1.72807,-0.33896 3.45752,-0.67092 5.1875,-1c0.96293,-0.18562 1.92586,-0.37125 2.91797,-0.5625c2.68795,-0.40628 5.18224,-0.51684 7.89453,-0.4375z"/>
   <path id="svg_70" fill="#ffffff" d="m1738,497c0.66,0.33 1.32,0.66 2,1c-3.3,3.3 -6.6,6.6 -10,10c0,-4.3225 2.14915,-5.88396 5,-9c0.99,-0.66 1.98,-1.32 3,-2z"/>
   <path id="svg_71" fill="#ffffff" d="m1822,709c-12.58663,5.65114 -12.58663,5.65114 -18,4c2.62235,-0.86317 5.24733,-1.71581 7.875,-2.5625c0.74637,-0.24686 1.49273,-0.49371 2.26172,-0.74805c5.63672,-1.80273 5.63672,-1.80273 7.86328,-0.68945z"/>
   <path id="svg_72" fill="#ffffff" d="m1758,304c1.65,0.33 3.3,0.66 5,1c0,0.99 0,1.98 0,3c-1.98,0.33 -3.96,0.66 -6,1c0.33,-1.65 0.66,-3.3 1,-5z"/>
   <path id="svg_73" fill="#ffffff" d="m1749,305c0,1.32 0,2.64 0,4c-2.97,-0.495 -2.97,-0.495 -6,-1c0,-0.99 0,-1.98 0,-3c3,-1 3,-1 6,0z"/>
   <path id="svg_74" fill="#ffffff" d="m1411,816c0.66,0.33 1.32,0.66 2,1c-2.97,2.97 -5.94,5.94 -9,9c0,-3.95564 1.40521,-5.10867 4,-8c0.99,-0.66 1.98,-1.32 3,-2z"/>
   <path id="svg_75" fill="#ffffff" d="m2808.5625,294.9375c1.20656,0.03094 1.20656,0.03094 2.4375,0.0625c-0.71156,0.58781 -0.71156,0.58781 -1.4375,1.1875c-1.9143,2.22058 -2.17517,3.94626 -2.5625,6.8125c-2,-2 -2,-2 -2.1875,-4.5625c0.25802,-3.35428 0.36836,-3.41752 3.75,-3.5z"/>
   <path id="svg_77" fill="#ffffff" d="m1906,470c1.98,0 3.96,0 6,0c-0.33,0.66 -0.66,1.32 -1,2c-0.99,0.33 -1.98,0.66 -3,1c0,1.32 0,2.64 0,4c-0.66,0 -1.32,0 -2,0c0,-2.31 0,-4.62 0,-7z"/>
   <path id="svg_78" fill="#ffffff" d="m1640,320c0.66,0.33 1.32,0.66 2,1c-0.45375,0.5775 -0.9075,1.155 -1.375,1.75c-1.46614,2.03003 -2.57358,3.9854 -3.625,6.25c-0.75,-2.25 -0.75,-2.25 -1,-5c1.9375,-2.3125 1.9375,-2.3125 4,-4z"/>
   <path id="svg_79" fill="#ffffff" d="m1864,320c2.4375,0.75 2.4375,0.75 5,2c0.9375,1.9375 0.9375,1.9375 1,4c-0.99,1.485 -0.99,1.485 -2,3c-0.47437,-1.11375 -0.94875,-2.2275 -1.4375,-3.375c-0.81556,-1.89211 -1.64106,-3.78213 -2.5625,-5.625z"/>
   <path id="svg_80" fill="#ffffff" d="m1800,714c4,1 4,1 4,1l-4,-1z"/>
   <path id="svg_81" fill="#ffffff" d="m1896,426c4,1 4,1 4,1l-4,-1z"/>
   <path id="svg_82" fill="#ffffff" d="m1606,426c4,1 4,1 4,1l-4,-1z"/>
   <path id="svg_83" fill="#ffffff" d="m1822,707c2,1 2,1 2,1l-2,-1z"/>
   <path id="svg_84" fill="#ffffff"/>
   <path id="svg_85" fill="#ffffff"/>
   <path id="svg_86" fill="#ffffff"/>
   <path id="svg_87" fill="#ffffff"/>
   <path id="svg_88" fill="#ffffff"/>
   <path id="svg_89" fill="#ffffff"/>
   <path id="svg_90" fill="#ffffff" d="m1996,317c2,1 2,1 2,1l-2,-1z"/>
   <path id="svg_91" fill="#ffffff" d="m1508,317c2,1 2,1 2,1l-2,-1z"/>
   <path id="svg_92" fill="#ffffff" d="m2050,315c2,1 2,1 2,1l-2,-1z"/>
   <path id="svg_93" fill="#ffffff" d="m1454,315c2,1 2,1 2,1l-2,-1z"/>
   <path id="svg_94" fill="#ffffff"/>
   <path id="svg_95" fill="#ffffff"/>
   <path id="svg_96" fill="#ffffff"/>
   <path id="svg_97" fill="#ffffff"/>
   <path id="svg_98" fill="#ffffff"/>
   <path id="svg_99" fill="#ffffff"/>
   <path id="svg_100" fill="#ffffff"/>
   <path id="svg_101" fill="#ffffff"/>
   <path id="svg_102" fill="#ffffff"/>
   <path id="svg_103" fill="#ffffff"/>
   <path id="svg_104" fill="#ffffff"/>
   <path id="svg_105" fill="#ffffff"/>
   <path id="svg_106" fill="#ffffff"/>
   <path id="svg_107" fill="#ffffff"/>
   <path id="svg_108" fill="#ffffff"/>
   <path id="svg_109" fill="#ffffff"/>
   <path id="svg_110" fill="#ffffff"/>
   <path id="svg_111" fill="#ffffff"/>
   <path id="svg_112" fill="#ffffff"/>
   <path id="svg_113" fill="#ffffff"/>
   <path id="svg_114" fill="#ffffff"/>
   <path id="svg_115" fill="#ffffff"/>
   <path id="svg_116" fill="#ffffff"/>
   <path id="svg_117" fill="#ffffff"/>
   <path id="svg_118" fill="#ffffff"/>
   <path id="svg_119" fill="#ffffff"/>
   <path id="svg_120" fill="#ffffff"/>
   <path id="svg_121" fill="#ffffff"/>
   <path id="svg_122" fill="#ffffff"/>
   <path id="svg_123" fill="#ffffff"/>
   <path id="svg_124" fill="#ffffff"/>
   <path id="svg_125" fill="#ffffff"/>
   <path id="svg_126" fill="#ffffff"/>
   <path id="svg_127" fill="#ffffff"/>
   <path id="svg_128" fill="#ffffff"/>
   <path id="svg_129" fill="#ffffff"/>
   <path id="svg_130" fill="#ffffff"/>
   <path id="svg_131" fill="#ffffff"/>
   <path id="svg_132" fill="#ffffff"/>
   <path id="svg_133" fill="#ffffff"/>
   <path id="svg_134" fill="#ffffff"/>
   <path id="svg_135" fill="#ffffff"/>
   <path id="svg_136" fill="#ffffff"/>
   <path id="svg_137" fill="#ffffff"/>
   <path id="svg_138" fill="#ffffff"/>
   <path id="svg_139" fill="#ffffff"/>
   <path id="svg_140" fill="#ffffff"/>
   <path id="svg_141" fill="#ffffff"/>
   <path id="svg_142" fill="#ffffff"/>
   <path id="svg_143" fill="#ffffff"/>
   <path id="svg_144" fill="#ffffff"/>
   <path id="svg_145" fill="#ffffff"/>
   <path id="svg_146" fill="#ffffff"/>
   <path id="svg_147" fill="#ffffff"/>
   <path id="svg_148" fill="#ffffff"/>
   <path id="svg_149" fill="#ffffff"/>
   <path id="svg_150" fill="#ffffff"/>
   <path id="svg_151" fill="#ffffff"/>
   <path id="svg_152" fill="#ffffff"/>
   <path id="svg_153" fill="#ffffff"/>
   <path id="svg_154" fill="#ffffff"/>
   <path id="svg_155" fill="#ffffff"/>
   <path id="svg_156" fill="#ffffff"/>
   <path id="svg_157" fill="#ffffff"/>
   <path id="svg_158" fill="#ffffff"/>
   <path id="svg_159" fill="#ffffff"/>
  </g>
 </g>
</svg>