<?xml version="1.0" standalone="no"?>
<!DOCTYPE svg PUBLIC "-//W3C//DTD SVG 20010904//EN"
 "http://www.w3.org/TR/2001/REC-SVG-20010904/DTD/svg10.dtd">
<svg version="1.0" xmlns="http://www.w3.org/2000/svg"
 width="1280.000000pt" height="640.000000pt" viewBox="0 0 1280.000000 640.000000"
 preserveAspectRatio="xMidYMid meet">
<metadata>
Created by potrace 1.15, written by Peter Selinger 2001-2017
</metadata>
<g transform="translate(0.000000,640.000000) scale(0.100000,-0.100000)"
fill="#ffffff" stroke="none">
<path d="M6070 4915 c-168 -28 -375 -118 -521 -226 -101 -75 -213 -189 -285
-293 l-59 -83 -1004 -6 c-552 -4 -1365 -7 -1805 -7 l-801 0 -145 31 c-109 23
-181 32 -290 36 -136 5 -158 3 -350 -32 -130 -23 -260 -40 -355 -45 -111 -7
-166 -14 -214 -31 -108 -37 -259 -169 -235 -206 5 -9 66 -50 134 -92 l125 -76
85 0 c47 -1 95 -7 108 -14 29 -16 87 -68 413 -375 690 -651 959 -910 959 -922
0 -8 -12 -16 -27 -20 -105 -23 -150 -37 -188 -59 -49 -29 -128 -111 -123 -127
2 -5 45 -21 95 -33 50 -13 124 -35 164 -50 l74 -27 445 0 445 -1 -3 -91 c-4
-100 11 -263 25 -277 13 -13 305 -23 322 -10 12 8 15 40 15 153 1 79 -2 162
-7 186 l-7 42 147 0 c211 0 297 -12 463 -63 80 -25 312 -95 515 -157 204 -61
476 -145 605 -185 129 -40 386 -119 570 -175 184 -56 350 -110 369 -120 23
-11 38 -28 45 -51 l11 -34 450 -2 c248 -2 499 0 559 5 l108 7 12 35 c15 46 23
50 366 158 641 203 1878 591 1920 603 43 12 345 17 357 6 2 -3 -3 -30 -13 -61
-16 -50 -17 -71 -7 -186 5 -72 13 -134 17 -138 4 -4 89 -7 189 -7 l182 0 5 62
c3 36 11 68 20 77 29 28 593 257 655 267 33 5 121 9 195 9 100 0 141 4 156 14
33 24 143 65 205 77 32 6 67 17 76 24 16 12 14 16 -22 50 -45 41 -159 101
-211 111 -19 3 -34 10 -34 15 0 15 159 173 760 759 l585 570 103 0 104 0 51
45 c29 25 86 63 128 85 97 50 108 63 83 92 -55 63 -154 135 -239 174 -45 21
-81 26 -256 39 -152 10 -247 23 -374 49 -188 40 -307 46 -391 21 -131 -39
-331 -76 -431 -80 -60 -3 -837 -9 -1728 -15 -891 -5 -1699 -13 -1795 -16
l-175 -5 -55 76 c-59 83 -199 222 -297 296 -127 96 -360 196 -523 225 -94 17
-349 16 -450 -1z m479 -35 c253 -62 440 -159 590 -304 83 -81 191 -211 191
-231 0 -19 -164 -24 -1182 -30 l-898 -6 10 27 c41 107 244 303 425 409 244
144 604 200 864 135z m5215 -466 c9 -3 16 -14 16 -24 0 -24 -19 -30 -91 -30
-63 0 -84 15 -59 45 13 15 102 21 134 9z m-206 -31 c8 -27 -87 -42 -148 -24
-21 7 -15 10 40 24 73 18 102 18 108 0z m415 -13 c16 -6 -1 -9 -55 -9 -59 -1
-78 2 -78 12 0 8 2 16 5 19 6 6 97 -9 128 -22z m-10814 -29 c8 -5 11 -16 8
-25 -5 -12 -20 -16 -61 -16 -58 0 -76 11 -56 35 14 17 86 20 109 6z m201 -21
l95 -18 -115 1 c-101 2 -115 4 -118 20 -4 22 15 22 138 -3z m-372 -2 c-3 -9
-32 -14 -89 -15 l-84 -2 50 14 c68 17 128 19 123 3z m10802 -41 l0 -44 -77 -7
c-42 -3 -111 -6 -155 -6 l-78 0 0 28 c0 69 -4 67 161 70 l149 4 0 -45z m400 4
c0 -28 -5 -41 -17 -46 -10 -4 -89 -10 -175 -12 l-158 -6 0 52 0 51 175 0 175
0 0 -39z m303 14 c37 -10 67 -20 67 -24 0 -4 -44 -15 -97 -25 -138 -25 -144
-25 -191 -19 l-42 6 0 45 0 45 98 -5 c53 -3 127 -13 165 -23z m-2855 -27 c-4
-52 -13 -56 -155 -57 -113 -1 -123 4 -123 68 l0 31 141 0 140 0 -3 -42z m370
0 l-3 -43 -165 0 -165 0 -3 43 -3 42 171 0 171 0 -3 -42z m342 -3 l0 -45 -150
0 -150 0 0 45 0 45 150 0 150 0 0 -45z m392 3 c3 -24 4 -44 4 -45 -1 -1 -80
-3 -176 -4 l-175 -3 -3 47 -3 47 174 0 175 0 4 -42z m358 -3 l0 -45 -165 0
-165 0 0 45 0 45 165 0 165 0 0 -45z m338 33 c7 -7 12 -24 12 -39 0 -25 -2
-26 -77 -33 -42 -3 -111 -6 -155 -6 l-78 0 0 45 0 45 143 0 c98 0 147 -4 155
-12z m-3598 -7 c19 -5 26 -14 28 -39 4 -44 -21 -52 -159 -52 -118 0 -118 0
-122 56 -2 27 1 29 38 35 55 8 185 8 215 0z m460 -13 c-1 -66 1 -65 -154 -73
-79 -4 -166 -4 -195 0 -43 6 -52 11 -57 31 -8 32 10 52 49 57 18 2 105 5 195
5 162 2 162 2 162 -20z m368 -25 l3 -43 -175 0 -176 0 0 45 0 45 173 -2 172
-3 3 -42z m352 2 l0 -45 -165 0 -165 0 0 35 c0 22 6 38 18 44 9 6 83 11 165
11 l147 0 0 -45z m310 0 l0 -46 -137 3 -138 3 -3 30 c-6 47 16 55 155 55 l123
0 0 -45z m-3712 20 c18 -5 22 -12 22 -45 l0 -40 -53 0 c-30 0 -88 -3 -130 -6
l-77 -7 0 34 c0 75 0 74 113 71 56 -1 112 -5 125 -7z m758 -71 c-6 -16 -72
-19 -111 -4 -22 8 -24 14 -19 37 9 38 8 37 72 43 l57 5 3 -34 c2 -18 1 -39 -2
-47z m574 39 l0 -48 -137 2 c-76 1 -137 4 -135 7 1 3 2 22 2 41 l0 34 133 4
c72 1 133 4 135 5 1 1 2 -19 2 -45z m290 38 c20 -5 26 -14 28 -44 l3 -37 -130
0 c-72 0 -134 -1 -138 -2 -5 -2 -9 16 -11 39 -3 39 -1 42 25 46 46 7 196 6
223 -2z m306 -15 c3 -13 4 -34 2 -46 -3 -21 -8 -22 -121 -23 l-117 -2 0 48 0
47 115 0 c113 0 115 0 121 -24z m-2196 -36 l0 -50 -146 0 -146 0 6 31 c3 17 6
40 6 50 0 18 10 19 140 19 l140 0 0 -50z m620 5 l0 -45 -145 0 -145 0 0 29 c0
16 -3 36 -6 45 -5 14 11 16 145 16 l151 0 0 -45z m231 3 l-6 -43 -72 -3 c-40
-2 -81 2 -92 7 -18 10 -34 58 -24 73 2 5 48 8 102 8 l97 0 -5 -42z m447 1 l-3
-42 -104 2 c-58 1 -109 4 -113 7 -12 8 -10 48 4 62 8 8 48 12 116 12 l103 0
-3 -41z m-4640 -16 l-3 -48 -162 -3 -163 -2 0 43 c0 24 3 47 7 50 3 4 78 7
165 7 l159 0 -3 -47z m307 2 c0 -36 -3 -40 -30 -46 -40 -9 -194 -9 -225 0 -21
6 -26 14 -28 49 l-3 43 143 -3 143 -3 0 -40z m306 5 c4 -19 5 -38 1 -42 -4 -4
-60 -10 -124 -14 -136 -8 -148 -3 -148 58 l0 39 132 -3 132 -3 7 -35z m317 -2
c-3 -38 -6 -43 -36 -50 -18 -5 -81 -7 -140 -6 l-107 3 -3 39 c-2 24 2 42 10
47 7 5 73 9 146 9 l133 0 -3 -42z m362 2 c0 -49 1 -49 -188 -52 l-142 -3 0 48
0 47 165 0 165 0 0 -40z m320 -5 l0 -45 -145 0 -145 0 0 45 0 45 145 0 145 0
0 -45z m348 3 l-3 -43 -156 -3 c-155 -2 -157 -2 -163 20 -3 13 -6 33 -6 46 0
22 0 22 166 22 l165 0 -3 -42z m402 16 c0 -14 -5 -34 -10 -45 -10 -18 -23 -19
-180 -19 l-170 0 0 45 0 45 180 0 180 0 0 -26z m330 7 c0 -11 -4 -31 -10 -45
l-10 -26 -133 0 c-147 0 -157 4 -157 57 l0 33 155 0 c147 0 155 -1 155 -19z
m338 -29 l3 -43 -158 3 -158 3 -3 43 -3 43 158 -3 158 -3 3 -43z m-4388 -7 l0
-45 -95 0 c-52 0 -139 5 -194 11 -111 13 -144 6 -228 -51 -52 -35 -56 -24 -8
19 90 78 199 107 413 110 l112 1 0 -45z m331 35 c12 -7 19 -21 19 -39 0 -36
-21 -41 -186 -41 l-124 0 0 45 0 45 136 0 c74 0 144 -5 155 -10z m300 0 c12
-7 19 -21 19 -39 0 -37 -15 -41 -157 -41 l-113 0 0 45 0 45 116 0 c63 0 124
-5 135 -10z m359 -35 l0 -45 -155 0 -155 0 0 45 0 45 155 0 155 0 0 -45z
m10953 -8 c31 -14 64 -43 56 -52 -3 -2 -35 -6 -72 -9 l-67 -6 0 34 c0 18 3 36
7 39 10 11 41 8 76 -6z m-123 -32 c0 -23 -4 -25 -42 -25 l-43 1 28 24 c36 32
57 32 57 0z m-2460 -101 c0 -99 -1 -105 -23 -115 -35 -16 -70 3 -117 62 -45
58 -95 138 -88 144 5 6 211 22 221 17 4 -2 7 -50 7 -108z m350 2 c0 -60 -4
-108 -10 -111 -6 -4 -75 -9 -155 -12 l-145 -6 0 116 0 117 155 0 155 0 0 -104z
m338 95 c10 -6 10 -10 -2 -20 -17 -15 -216 -27 -269 -17 -36 7 -50 29 -24 39
21 9 281 7 295 -2z m399 -6 c3 -9 3 -19 -1 -22 -10 -10 -199 -16 -260 -9 -37
5 -56 12 -56 21 0 21 16 23 168 24 120 1 144 -1 149 -14z m337 9 c9 -3 16 -12
16 -20 0 -11 -28 -14 -144 -14 -138 0 -166 6 -151 30 7 11 252 14 279 4z m230
-3 c8 -12 -40 -29 -104 -36 -60 -6 -86 4 -77 29 5 13 23 16 91 16 47 0 87 -4
90 -9z m521 -2 c4 -6 4 -13 0 -17 -10 -10 -247 -15 -302 -7 -48 7 -48 21 2 28
67 9 294 7 300 -4z m145 -4 c-13 -16 -100 -22 -100 -7 0 17 14 22 63 22 43 0
48 -2 37 -15z m-4030 -91 c0 -97 -10 -134 -35 -134 -13 0 -226 177 -240 200
-15 24 12 30 141 30 l134 0 0 -96z m295 87 c5 -9 -220 -221 -236 -221 -13 0
-28 62 -35 148 l-7 82 136 0 c75 0 138 -4 142 -9z m425 -90 c0 -59 -4 -102
-10 -106 -12 -7 -91 49 -188 133 -46 40 -60 57 -50 63 7 5 66 9 131 9 l117 0
0 -99z m314 53 c3 -26 6 -75 6 -110 l0 -64 -134 0 c-113 0 -135 2 -140 16 -3
9 -6 58 -6 110 l0 94 134 0 133 0 7 -46z m194 -59 c-61 -59 -116 -105 -127
-105 -17 0 -20 10 -25 78 -4 42 -9 89 -11 105 l-4 27 137 0 137 -1 -107 -104z
m-3338 79 c3 -3 -15 -24 -39 -45 -36 -32 -51 -39 -86 -39 -30 0 -45 5 -49 16
-8 22 -8 69 2 78 8 9 162 -1 172 -10z m147 -43 c6 -45 6 -45 -32 -31 -23 9
-26 14 -20 38 16 65 43 62 52 -7z m291 53 c17 -5 22 -14 22 -39 0 -39 -11 -45
-89 -45 -53 0 -59 3 -96 40 l-38 39 69 4 c38 1 78 4 89 5 11 1 30 -1 43 -4z
m326 -10 c3 -9 6 -29 6 -45 l0 -29 -74 0 c-40 0 -101 -3 -135 -6 l-61 -7 0 52
0 51 129 0 c108 0 130 -3 135 -16z m310 -6 c3 -13 6 -33 6 -45 0 -23 -1 -23
-140 -23 l-140 0 0 45 0 45 134 0 c130 0 134 -1 140 -22z m285 -15 c6 -21 11
-41 11 -45 0 -9 -211 -11 -234 -2 -16 6 -23 64 -9 77 3 4 55 7 114 7 l108 0
10 -37z m292 5 c-11 -18 -42 -68 -68 -110 l-48 -78 -45 0 c-90 0 -90 1 -90
100 0 49 3 95 6 104 5 13 27 16 136 16 l130 0 -21 -32z m-7566 -9 c0 -33 -41
-51 -107 -47 l-53 3 70 37 c39 20 75 36 80 34 6 -1 10 -13 10 -27z m3345 -48
c0 -38 -3 -83 -6 -100 l-6 -31 -124 0 c-150 0 -154 3 -154 117 0 67 2 73 23
78 25 6 248 12 260 7 4 -2 7 -34 7 -71z m748 -30 l3 -101 -38 0 c-70 0 -101
17 -198 107 -52 48 -95 90 -95 93 0 3 73 4 162 3 l163 -2 3 -100z m151 16
c-52 -48 -101 -86 -109 -84 -11 2 -16 20 -18 76 -2 41 -1 79 1 85 3 7 43 11
112 11 l108 0 -94 -88z m519 -18 l-3 -94 -91 -3 -91 -3 -58 91 c-34 54 -54 95
-49 100 10 10 274 18 287 9 4 -3 6 -48 5 -100z m313 59 l-6 -43 -128 0 c-136
0 -147 4 -147 52 0 15 7 24 23 28 21 5 246 12 258 8 3 -1 3 -21 0 -45z m292 9
c5 -21 7 -41 3 -44 -3 -3 -57 -8 -120 -11 -133 -6 -146 0 -146 60 l0 39 127
-3 127 -3 9 -38z m337 -2 l0 -46 -147 3 -148 3 -3 28 c-7 56 -5 57 153 57
l145 0 0 -45z m1966 -23 c-12 -11 -16 6 -9 39 l8 34 3 -33 c2 -19 1 -36 -2
-40z m714 -31 l0 -98 -116 -7 c-64 -4 -118 -5 -120 -3 -5 5 217 207 228 207 4
0 8 -44 8 -99z m3090 95 c0 -3 -4 -8 -10 -11 -5 -3 -10 -1 -10 4 0 6 5 11 10
11 6 0 10 -2 10 -4z m-11363 -27 c24 -11 41 -25 37 -30 -3 -5 -30 -9 -60 -9
-53 0 -54 0 -54 30 0 37 16 39 77 9z m2235 -1 c4 -7 8 -52 8 -100 l0 -88 -134
0 -133 0 -7 38 c-10 62 -7 147 7 161 17 18 246 8 259 -11z m1318 17 c0 -2 -50
-43 -111 -90 -104 -80 -152 -106 -166 -91 -12 11 -23 111 -17 149 l6 37 144 0
c79 0 144 -2 144 -5z m2305 -32 c-7 -40 -25 -69 -25 -41 0 19 20 78 27 78 3 0
2 -17 -2 -37z m2543 -19 c41 -31 93 -73 114 -92 35 -32 38 -37 21 -43 -23 -10
-103 -11 -170 -3 l-53 7 0 93 c0 52 3 94 7 94 3 0 40 -25 81 -56z m-7810 40
c34 -10 26 -31 -15 -38 -49 -8 -221 -8 -251 0 -41 11 -17 29 49 35 94 8 191
10 217 3z m329 -10 c10 -26 -17 -35 -85 -31 -61 5 -97 20 -86 38 3 5 41 9 85
9 64 0 81 -3 86 -16z m330 1 c3 -9 2 -19 -2 -23 -3 -4 -64 -8 -135 -10 -133
-4 -174 5 -164 33 9 23 292 22 301 0z m369 3 c17 -27 -29 -38 -165 -38 -140 0
-168 6 -158 34 5 14 28 16 161 16 106 0 157 -4 162 -12z m312 -10 c3 -16 -7
-18 -111 -18 -84 0 -118 4 -126 13 -6 8 -8 17 -4 21 4 4 59 5 122 4 101 -3
116 -5 119 -20z m517 0 c-4 -13 -25 -54 -48 -93 -41 -68 -44 -70 -82 -70 -47
0 -52 13 -54 118 l-1 67 96 0 c94 0 95 0 89 -22z m463 -75 l-3 -98 -50 3 c-27
2 -65 10 -83 18 -39 16 -184 153 -176 165 3 5 75 9 160 9 l155 0 -3 -97z
m-2658 77 c24 -16 -7 -30 -65 -29 -61 1 -97 11 -103 27 -5 15 145 17 168 2z
m4038 -410 c0 -78 -3 -117 -8 -105 -5 11 -8 133 -8 270 1 234 2 241 8 105 4
-80 8 -201 8 -270z m3421 325 c45 -38 81 -74 81 -78 0 -4 -42 -6 -92 -5 l-93
3 -3 83 c-3 98 -9 98 107 -3z m1720 14 c23 -39 41 -73 38 -75 -2 -2 -25 -7
-50 -10 l-47 -7 0 82 c0 44 4 81 8 81 5 0 28 -32 51 -71z m2586 20 c-64 -64
-107 -91 -142 -87 -22 2 -29 9 -31 31 -7 55 74 104 178 106 l44 1 -49 -51z
m265 47 c0 -6 -126 -95 -144 -102 -13 -5 -16 3 -16 44 l0 51 53 4 c28 2 64 4
80 5 15 1 27 0 27 -2z m-8696 -38 c3 -18 7 -54 9 -80 l5 -48 -87 0 c-86 0
-131 7 -131 19 0 8 179 141 190 141 5 0 11 -15 14 -32z m136 -32 c41 -35 75
-70 75 -78 0 -10 -22 -14 -87 -16 l-88 -3 0 81 c0 57 4 80 13 80 6 0 46 -29
87 -64z m510 -6 c0 -84 -7 -90 -112 -90 l-73 1 83 79 c46 44 87 80 93 80 5 0
9 -31 9 -70z m5020 -6 l0 -76 -85 4 c-47 2 -85 6 -85 10 0 10 149 138 160 138
6 0 10 -34 10 -76z m970 67 c0 -23 -134 -127 -170 -131 -37 -5 -40 0 -40 70
l0 70 105 0 c60 0 105 -4 105 -9z m469 3 l31 -6 0 -69 0 -69 -162 2 -163 3 -3
67 -3 67 43 4 c77 7 225 7 257 1z m377 -46 c-11 -81 -15 -83 -174 -83 l-137 0
-3 55 c-5 77 1 80 176 80 l145 0 -7 -52z m92 46 c22 -6 22 -7 5 -26 -33 -37
-52 -41 -62 -16 -15 39 8 55 57 42z m636 -17 c9 -16 4 -25 -39 -63 l-49 -44
-128 0 -128 0 0 59 c0 38 4 61 13 65 6 2 81 4 166 3 137 -2 155 -4 165 -20z
m-1439 -20 c4 -18 5 -49 3 -68 l-3 -34 -115 -2 -115 -3 45 41 c65 58 130 99
156 99 18 0 24 -7 29 -33z m890 -4 c-31 -73 -41 -83 -90 -83 -50 0 -55 8 -25
35 27 25 113 84 123 84 4 1 0 -16 -8 -36z m169 21 c3 -9 6 -36 6 -60 l0 -44
-50 0 c-52 0 -65 15 -35 40 8 7 15 19 15 27 0 43 50 73 64 37z m-3930 -58 c-1
-31 -4 -59 -6 -61 -3 -3 -22 -6 -44 -8 -30 -1 -39 1 -38 14 2 24 67 120 79
116 5 -2 9 -30 9 -61z m4598 -38 c-6 -6 -30 -6 -58 -2 l-48 7 55 48 54 47 3
-45 c2 -25 -1 -50 -6 -55z m-10318 11 l61 -58 -77 -1 c-89 0 -108 12 -108 69
0 77 36 74 124 -10z m2642 -47 c-41 -5 -66 14 -66 53 0 68 10 70 51 8 l39 -58
-24 -3z m-3187 102 c30 -6 31 -9 31 -54 0 -34 -4 -50 -16 -54 -9 -3 -73 -6
-144 -6 l-127 0 -7 38 c-9 58 -7 70 12 75 27 7 216 8 251 1z m401 -54 l0 -60
-165 0 -165 0 0 60 0 60 165 0 165 0 0 -60z m320 16 c0 -63 -7 -76 -41 -76
-22 0 -44 13 -79 46 -71 66 -67 74 35 74 l85 0 0 -44z m530 -7 c0 -38 -21 -61
-53 -57 l-26 3 31 53 c32 56 48 56 48 1z m199 -3 l53 -54 -40 -7 c-47 -8 -78
-1 -85 19 -7 17 3 96 12 96 4 0 31 -24 60 -54z m-2789 -11 c0 -30 -4 -55 -8
-55 -7 0 -124 81 -146 101 -6 5 25 9 72 9 l82 0 0 -55z m276 20 c30 -20 59
-45 64 -55 10 -19 7 -20 -71 -20 l-81 0 -56 55 -57 55 74 0 c68 0 78 -3 127
-35z m104 7 c0 -16 -3 -31 -6 -35 -6 -6 -94 49 -94 58 0 3 23 5 50 5 48 0 50
-1 50 -28z m350 -11 c0 -22 3 -46 6 -55 5 -14 -12 -16 -155 -16 l-161 0 0 48
c0 27 3 52 7 55 3 4 73 7 155 7 l148 0 0 -39z m90 -22 c21 -40 18 -49 -16 -49
-27 0 -44 26 -44 68 0 56 27 48 60 -19z m169 -23 l24 -26 -35 0 c-39 0 -59 18
-77 69 -6 19 -11 36 -11 38 0 7 72 -52 99 -81z m49 47 c2 -18 0 -33 -5 -33 -4
1 -26 16 -48 36 l-40 35 45 -3 c43 -3 45 -5 48 -35z m6252 -10 c0 -12 -4 -25
-10 -28 -12 -8 -24 40 -16 62 6 15 8 15 16 3 6 -8 10 -25 10 -37z m4100 -5
c-44 -87 -133 -239 -137 -234 -2 2 30 67 73 145 43 77 79 139 82 137 2 -2 -6
-24 -18 -48z m-5295 17 c0 -16 -8 -20 -40 -23 -40 -2 -75 11 -63 24 9 8 69 23
88 20 8 0 15 -10 15 -21z m1134 -9 c12 -39 28 -155 36 -266 l6 -85 -81 -130
c-102 -164 -163 -254 -171 -255 -6 0 -362 375 -427 450 -16 20 -35 54 -41 77
-12 46 -51 83 -85 83 -12 0 -38 14 -58 30 l-37 30 19 42 c10 23 27 46 37 50
10 4 192 7 405 6 l387 0 10 -32z m-1613 18 c20 -4 37 -19 57 -51 15 -24 27
-48 27 -52 0 -20 -41 -43 -72 -40 -20 1 -47 -6 -68 -19 -60 -36 -63 -40 -58
-99 5 -54 4 -56 -46 -111 -87 -98 -176 -193 -285 -305 l-105 -108 -18 23 c-34
43 -215 313 -232 345 -9 19 -16 56 -16 90 0 88 27 268 45 302 l16 31 363 0
c200 0 376 -3 392 -6z m3831 -146 c-2 -29 -3 -8 -3 47 0 55 1 79 3 53 2 -26 2
-71 0 -100z m-9357 110 c40 -29 39 -48 -4 -48 -40 0 -50 11 -42 46 8 29 9 29
46 2z m11830 7 c0 -8 -4 -15 -10 -15 -5 0 -10 7 -10 15 0 8 5 15 10 15 6 0 10
-7 10 -15z m-9283 -47 c-3 -7 -5 -2 -5 12 0 14 2 19 5 13 2 -7 2 -19 0 -25z
m3299 16 c-3 -9 -6 -20 -6 -25 0 -5 -4 -9 -9 -9 -4 0 -6 11 -3 25 2 14 9 25
14 25 6 0 7 -7 4 -16z m191 -41 c7 -9 12 -22 10 -28 -4 -11 -119 -19 -154 -10
-25 6 -31 36 -10 53 30 25 132 16 154 -15z m-287 12 c-7 -9 -15 -13 -19 -10
-3 3 1 10 9 15 21 14 24 12 10 -5z m6134 -4 c10 -15 -1229 -1230 -1241 -1217
-5 4 110 219 240 449 59 106 119 199 146 227 67 71 669 532 705 541 44 10 144
11 150 0z m-2358 -11 c21 -8 49 -41 103 -122 40 -61 76 -118 78 -127 3 -12
-24 -40 -87 -92 -51 -40 -115 -93 -144 -116 -28 -23 -54 -39 -58 -35 -3 4 -8
115 -10 247 l-3 240 30 6 c46 10 60 10 91 -1z m427 3 c67 -6 78 -13 55 -33
-33 -26 -232 -186 -244 -195 -15 -11 -16 -11 -104 117 -33 47 -60 91 -60 97 0
6 40 12 103 14 56 1 120 4 142 5 22 1 70 -1 108 -5z m1025 -8 c2 -2 -8 -15
-24 -28 -16 -13 -155 -128 -308 -256 l-279 -231 -216 2 -216 3 -82 120 -81
120 31 32 c18 18 93 82 167 144 l135 111 434 -6 c239 -4 437 -8 439 -11z m208
1 c6 -16 -15 -57 -165 -332 l-94 -171 -165 -6 c-223 -9 -332 -9 -332 1 0 5 53
52 118 104 64 53 200 164 302 247 101 83 198 155 215 160 50 15 115 13 121 -3z
m323 -108 c-200 -159 -452 -349 -456 -344 -2 1 25 54 60 117 35 63 87 159 117
214 29 55 60 108 68 118 13 15 36 17 190 17 l175 0 -154 -122z m-5223 91 c18
-20 18 -21 -1 -35 -36 -27 -65 -28 -88 -5 l-22 22 24 20 c30 25 63 24 87 -2z
m2291 12 c80 -8 83 -9 167 -71 47 -35 86 -69 86 -75 0 -17 -340 -345 -358
-345 -9 0 -245 213 -396 357 -92 88 -97 96 -82 111 13 13 43 18 134 23 182 8
359 8 449 0z m397 1 c6 -10 -69 -98 -96 -113 -21 -11 -56 10 -126 75 l-33 31
43 6 c67 9 206 10 212 1z m330 -14 c11 -39 18 -360 9 -416 l-8 -53 -170 137
c-93 75 -185 150 -203 167 l-32 31 47 49 c27 27 66 62 87 78 38 28 43 29 151
29 108 0 113 -1 119 -22z m-6482 -14 c15 -8 69 -51 119 -96 87 -79 90 -82 71
-97 -11 -9 -110 -85 -220 -168 l-200 -153 -6 73 c-3 39 -8 158 -11 264 l-6
192 68 4 c89 5 151 -1 185 -19z m438 16 c0 -5 -43 -44 -95 -86 -78 -63 -99
-75 -120 -70 -13 3 -57 38 -97 77 -71 70 -72 72 -48 79 38 12 360 12 360 0z
m646 -6 c19 -9 34 -20 34 -24 0 -9 -501 -490 -510 -490 -4 0 -79 66 -166 146
-217 199 -202 183 -184 194 9 5 67 49 130 99 l115 89 273 1 c233 1 279 -1 308
-15z m74 12 c0 -3 -4 -8 -10 -11 -5 -3 -10 -1 -10 4 0 6 5 11 10 11 6 0 10 -2
10 -4z m562 -71 c102 -152 127 -206 149 -316 23 -122 60 -262 89 -337 11 -30
16 -52 11 -50 -6 1 -107 90 -225 197 l-214 193 -2 187 c0 103 3 190 7 194 4 4
37 7 73 5 l65 -3 47 -70z m144 -2 c-14 -161 -9 -159 -87 -41 -38 57 -69 106
-69 111 0 4 37 7 81 7 l82 0 -7 -77z m1414 45 c0 -5 -4 -8 -10 -8 -5 0 -10 10
-10 23 0 18 2 19 10 7 5 -8 10 -18 10 -22z m1450 -56 c0 -49 2 -136 5 -193 l6
-104 -136 -125 c-254 -234 -329 -300 -333 -295 -2 2 12 44 32 93 43 108 73
226 87 351 6 57 19 111 31 135 36 72 119 196 141 211 14 10 46 15 94 15 l73 0
0 -88z m344 75 c10 -7 17 -20 15 -29 -4 -18 -227 -231 -259 -248 -20 -10 -20
-7 -20 140 l0 150 123 0 c86 0 129 -4 141 -13z m-7508 -38 c69 -46 648 -489
689 -527 29 -27 79 -111 181 -302 172 -322 177 -331 170 -337 -2 -3 -38 26
-78 63 -263 245 -1074 1010 -1128 1064 l-65 65 45 5 c74 8 144 -4 186 -31z
m1663 -103 l143 -143 -74 -133 c-60 -109 -79 -135 -105 -146 -22 -10 -78 -14
-179 -14 l-146 0 -102 87 c-175 151 -408 358 -481 426 l-70 66 435 1 435 0
144 -144z m297 128 c-8 -21 -109 -192 -129 -219 -15 -19 -20 -15 -136 100 -67
65 -121 123 -121 127 0 4 88 8 196 8 177 0 196 -2 190 -16z m146 -6 c14 -24
26 -518 13 -518 -10 0 -223 201 -251 237 l-25 33 66 112 c85 143 98 158 146
158 29 0 41 -5 51 -22z m1766 10 c14 -14 17 -282 3 -276 -21 7 -261 241 -261
253 0 8 8 19 18 24 25 15 225 14 240 -1z m1420 -22 c-3 -24 -44 -35 -62 -16
-8 9 -5 16 12 30 28 23 54 16 50 -14z m1641 12 c-21 -39 -93 -138 -100 -138
-8 0 -17 149 -10 156 2 2 31 4 63 4 58 0 59 0 47 -22z m-6550 3 c17 -5 41 -36
84 -111 93 -165 190 -351 185 -356 -6 -6 -573 413 -632 467 -12 10 327 10 363
0z m252 -21 c24 -16 154 -127 289 -246 135 -119 262 -230 283 -247 27 -22 34
-33 25 -39 -7 -4 -108 -8 -225 -8 l-211 0 -20 33 c-11 17 -68 122 -127 232
-59 110 -121 224 -137 253 l-29 52 54 0 c43 0 62 -6 98 -30z m4737 -17 c-5
-20 -16 -46 -24 -58 -7 -11 -19 -61 -26 -110 -15 -104 -33 -121 -43 -40 -12
95 5 158 61 224 32 39 46 32 32 -16z m37 -69 c-23 -78 -29 -62 -8 22 10 38 19
61 21 52 2 -10 -4 -43 -13 -74z m392 17 c24 -53 45 -185 27 -168 -12 11 -72
237 -61 230 5 -3 20 -31 34 -62z m-1960 -187 l52 -49 4 -326 5 -326 -55 -13
c-75 -16 -123 -38 -123 -54 0 -20 23 -26 103 -26 l72 0 -3 -82 c-1 -46 -4 -90
-5 -99 -1 -10 -92 65 -252 209 -428 385 -570 515 -570 523 0 4 114 115 254
247 l255 241 105 -98 c58 -54 129 -120 158 -147z m4019 -27 c98 -89 182 -170
188 -180 9 -15 -3 -31 -89 -110 -54 -50 -228 -212 -384 -359 -157 -148 -289
-268 -294 -268 -4 0 -6 39 -5 88 l3 87 77 5 c43 3 81 9 85 14 14 14 -32 42
-92 56 -36 9 -62 21 -70 34 -9 15 -16 108 -23 315 l-11 294 102 96 c56 53 127
120 157 148 l54 51 63 -55 c34 -30 142 -128 239 -216z m-5699 186 c-2 -16 -4
-3 -4 27 0 30 2 43 4 28 2 -16 2 -40 0 -55z m3461 0 c-3 -48 -3 -48 -42 -51
-47 -4 -56 4 -66 57 l-7 41 59 0 59 0 -3 -47z m61 20 c15 -29 40 -123 33 -123
-11 1 -52 94 -52 118 0 27 6 28 19 5z m-209 -5 c0 -19 -18 -43 -25 -36 -9 9 4
48 16 48 5 0 9 -6 9 -12z m3510 -50 c0 -10 -4 -18 -10 -18 -5 0 -10 15 -10 33
0 24 3 28 10 17 5 -8 10 -23 10 -32z m1759 -40 c-34 -68 -101 -179 -105 -175
-4 4 45 96 102 194 27 46 29 33 3 -19z m-2149 -35 c119 -96 229 -190 298 -255
l52 -50 0 -354 c0 -195 -3 -354 -6 -354 -7 0 -736 664 -783 713 l-33 35 48 53
c27 28 81 78 119 111 39 32 73 62 77 66 4 4 28 31 54 60 26 28 54 52 63 52 9
0 59 -35 111 -77z m-2306 -162 c119 -123 219 -235 222 -248 7 -25 -29 -92 -96
-181 l-36 -47 -191 -3 -191 -2 -16 47 c-35 108 -96 333 -96 352 0 20 1 20 46
-4 61 -33 117 -33 149 -1 23 23 23 25 9 72 -17 60 -36 76 -119 104 -65 22 -98
50 -88 76 2 7 28 18 56 24 29 6 66 17 82 25 17 7 35 13 41 12 6 -1 109 -103
228 -226z m-3566 147 c124 -112 292 -271 292 -277 0 -8 -727 -705 -771 -740
l-26 -20 -6 327 c-4 180 -9 343 -12 362 l-6 35 192 150 c194 151 268 205 282
205 4 0 29 -19 55 -42z m2445 31 c49 -10 58 -16 64 -37 7 -29 -21 -58 -66 -69
-62 -14 -100 -42 -110 -80 -6 -21 -11 -43 -11 -50 0 -18 48 -52 92 -65 36 -11
41 -9 83 20 25 17 45 27 45 21 0 -14 -99 -380 -106 -391 -3 -4 -94 -8 -203 -8
-230 0 -209 -8 -295 114 l-55 78 137 147 c334 357 314 342 425 320z m-3006
-86 c-3 -10 -5 -2 -5 17 0 19 2 27 5 18 2 -10 2 -26 0 -35z m3213 43 c0 -3 -4
-8 -10 -11 -5 -3 -10 -1 -10 4 0 6 5 11 10 11 6 0 10 -2 10 -4z m3617 -706
l-1 -275 -6 200 c-4 110 -7 333 -7 495 l1 295 7 -220 c3 -121 6 -344 6 -495z
m443 601 c38 -54 70 -103 70 -109 0 -6 -42 -12 -107 -14 -135 -4 -323 2 -322
11 1 14 261 211 280 211 4 0 40 -44 79 -99z m-7469 -63 l124 -123 -199 -3
c-109 -1 -201 0 -205 3 -11 11 126 245 143 245 8 0 69 -55 137 -122z m4822 65
c-11 -123 -53 -278 -98 -362 l-13 -26 -46 49 c-25 27 -46 55 -46 64 0 22 190
322 204 322 2 0 2 -21 -1 -47z m-1176 26 c25 -9 26 -12 10 -20 -23 -13 -109
-7 -114 8 -4 11 17 18 59 22 9 0 29 -4 45 -10z m-271 -40 c-8 -19 -15 -29 -15
-22 -1 18 19 67 25 61 3 -3 -2 -21 -10 -39z m422 2 c5 -32 -14 -51 -85 -83
-96 -43 -196 -35 -264 22 -23 19 -31 32 -26 44 7 17 9 17 30 2 45 -34 93 -50
147 -49 61 0 101 17 145 61 35 34 49 35 53 3z m-1350 -68 c81 -119 142 -221
142 -236 0 -19 -76 -90 -88 -83 -38 23 -149 406 -118 406 2 0 31 -39 64 -87z
m2809 45 c-3 -8 -6 -5 -6 6 -1 11 2 17 5 13 3 -3 4 -12 1 -19z m-6547 -9 c0
-6 -4 -7 -10 -4 -5 3 -10 11 -10 16 0 6 5 7 10 4 6 -3 10 -11 10 -16z m3257
-416 c-1 -82 -3 -15 -3 147 0 162 2 229 3 148 2 -82 2 -214 0 -295z m2083 397
c-16 -31 -23 -18 -8 15 7 15 14 23 16 17 2 -6 -2 -21 -8 -32z m4560 -80 c-29
-50 -54 -89 -57 -86 -3 2 19 48 49 100 29 53 54 92 56 87 2 -5 -20 -51 -48
-101z m-6338 -138 c97 -90 179 -169 181 -177 11 -27 -33 -46 -169 -74 -76 -16
-163 -35 -192 -42 -41 -10 -55 -10 -65 0 -9 9 -13 84 -15 273 l-3 261 43 -38
c24 -22 122 -113 220 -203z m2942 -17 c4 -141 5 -259 2 -264 -3 -5 -50 2 -103
15 -54 13 -127 27 -163 30 -98 9 -134 21 -156 51 l-21 28 211 197 c116 108
214 197 217 197 3 1 9 -114 13 -254z m-1864 174 c-11 -36 -20 -49 -20 -28 0
25 12 59 20 59 5 0 5 -14 0 -31z m-3145 -38 c-9 -16 -25 -3 -18 15 4 10 9 12
15 6 6 -6 7 -15 3 -21z m7438 -91 c37 -55 67 -104 67 -109 0 -9 -190 -169
-502 -424 -58 -48 -111 -87 -116 -87 -14 0 -22 141 -25 445 l-2 260 105 6 c58
3 173 6 256 7 l151 2 66 -100z m296 91 c25 -7 25 -6 -147 -147 -43 -35 -50
-30 -120 66 -47 66 -51 75 -35 81 23 9 270 9 302 0z m563 3 l37 -6 -35 -70
c-59 -117 -345 -632 -359 -647 -11 -11 -24 2 -82 80 -38 52 -102 144 -143 204
-41 61 -92 136 -113 168 -46 68 -58 49 103 181 l115 94 220 1 c121 0 237 -2
257 -5z m-2185 -169 c92 -82 202 -182 243 -221 68 -66 166 -155 349 -318 36
-32 67 -62 69 -66 4 -10 -1641 -12 -1656 -2 -17 11 20 50 213 228 83 76 224
209 315 295 212 201 270 250 286 241 6 -4 88 -74 181 -157z m-4920 -142 c174
-159 361 -328 415 -377 75 -66 97 -91 88 -100 -8 -8 -234 -12 -826 -14 l-815
-3 407 390 c224 215 409 391 411 391 2 0 146 -129 320 -287z m2142 91 l1 -121
-117 -5 c-65 -3 -120 -4 -122 -2 -2 2 1 30 8 61 21 99 19 96 55 89 35 -7 91 8
118 31 10 9 20 38 24 72 15 127 33 62 33 -125z m70 4 c0 -71 -3 -128 -8 -128
-13 0 -22 146 -14 235 10 111 20 59 22 -107z m97 102 c24 -54 31 -61 66 -71
28 -7 49 -7 70 0 17 6 35 11 39 11 7 0 61 -161 56 -166 -1 -2 -64 -6 -140 -10
l-137 -7 0 152 c0 88 4 151 9 151 6 0 22 -27 37 -60z m1551 -47 c-2 -21 -4 -4
-4 37 0 41 2 58 4 38 2 -21 2 -55 0 -75z m-5660 91 l52 -7 -13 -32 c-22 -52
-65 -115 -79 -115 -8 0 -51 33 -97 73 l-84 72 65 6 c35 3 73 6 84 7 11 1 43
-1 72 -4z m562 -9 c9 -10 14 -675 5 -675 -5 0 -57 41 -114 92 -58 50 -182 158
-277 239 -94 82 -174 158 -178 169 -4 12 1 30 13 48 11 15 29 46 41 70 36 70
52 74 296 67 115 -3 211 -8 214 -10z m3161 5 c0 -5 -5 -10 -11 -10 -5 0 -7 5
-4 10 3 6 8 10 11 10 2 0 4 -4 4 -10z m-3895 -81 c122 -109 118 -103 93 -153
-48 -95 -270 -476 -277 -476 -4 0 -32 44 -61 98 -29 53 -76 137 -104 187 -28
49 -53 94 -55 100 -2 5 -39 76 -82 157 -44 81 -79 151 -79 157 0 8 76 11 238
11 l237 0 90 -81z m-590 41 c3 -5 2 -10 -4 -10 -5 0 -13 5 -16 10 -3 6 -2 10
4 10 5 0 13 -4 16 -10z m9695 -11 c-7 -11 -14 -19 -16 -16 -7 7 7 37 17 37 6
0 5 -9 -1 -21z m-8323 -61 c-3 -8 -6 -5 -6 6 -1 11 2 17 5 13 3 -3 4 -12 1
-19z m4447 -27 c48 -48 49 -51 33 -74 -48 -74 -79 -76 -102 -7 -9 27 -23 53
-31 58 -11 6 -10 13 6 40 11 17 26 32 33 32 7 0 35 -22 61 -49z m3838 27 c-7
-7 -12 -8 -12 -2 0 14 12 26 19 19 2 -3 -1 -11 -7 -17z m-5207 -28 c-4 -12 -9
-19 -12 -17 -3 3 -2 15 2 27 4 12 9 19 12 17 3 -3 2 -15 -2 -27z m-617 -40
l27 -45 -34 28 c-18 15 -39 26 -45 24 -6 -2 -15 -21 -20 -43 -15 -70 -14 -69
-36 -49 -32 29 -26 69 18 104 20 18 43 30 50 29 8 -2 26 -23 40 -48z m5211
-180 c32 -47 92 -136 134 -198 42 -62 77 -116 77 -121 0 -19 -959 -26 -978 -6
-8 8 12 26 215 191 114 93 251 206 306 252 l99 82 45 -57 c25 -32 71 -96 102
-143z m-8969 175 c0 -8 -2 -15 -4 -15 -2 0 -6 7 -10 15 -3 8 -1 15 4 15 6 0
10 -7 10 -15z m1297 -17 c-3 -7 -5 -2 -5 12 0 14 2 19 5 13 2 -7 2 -19 0 -25z
m8233 -12 c0 -3 -4 -8 -10 -11 -5 -3 -10 -1 -10 4 0 6 5 11 10 11 6 0 10 -2
10 -4z m-8801 -53 c133 -114 391 -341 444 -392 48 -47 54 -57 40 -63 -22 -8
-799 -10 -830 -2 -22 6 -21 7 11 58 19 28 73 122 120 208 85 152 140 238 152
238 4 0 32 -21 63 -47z m5121 18 c0 -14 -18 -23 -31 -15 -8 4 -7 9 2 15 18 11
29 11 29 0z m-4553 -33 c-3 -8 -6 -5 -6 6 -1 11 2 17 5 13 3 -3 4 -12 1 -19z
m2293 1 c0 -5 -7 -9 -15 -9 -15 0 -20 12 -9 23 8 8 24 -1 24 -14z m5895 -9
c-9 -16 -18 -30 -21 -30 -2 0 2 14 11 30 9 17 18 30 21 30 2 0 -2 -13 -11 -30z
m-5164 -47 c-10 -17 -10 -16 -11 3 0 23 13 41 18 25 2 -6 -1 -18 -7 -28z
m1089 18 l65 -7 -55 -7 c-108 -13 -265 -17 -280 -8 -13 9 -13 11 0 15 42 14
167 18 270 7z m260 -1 c13 0 13 -1 0 -10 -19 -12 -110 -13 -110 -1 0 11 46 20
75 15 11 -2 27 -4 35 -4z m220 0 c20 0 22 -2 10 -10 -18 -11 -111 -13 -137 -3
-14 6 -9 9 22 14 22 4 49 5 60 3 11 -2 31 -4 45 -4z m-906 -6 c113 -16 24 -24
-256 -24 -304 0 -427 9 -278 21 109 8 480 10 534 3z m115 -27 c0 -21 -1 -21
-9 -2 -12 28 -12 37 0 30 6 -3 10 -16 9 -28z m976 23 c4 -6 -11 -10 -39 -10
-25 0 -48 5 -51 10 -4 6 11 10 39 10 25 0 48 -4 51 -10z m-2630 -10 c-3 -5
-30 -10 -58 -9 -38 0 -47 3 -32 9 29 12 98 12 90 0z m195 0 c0 -6 -30 -10 -71
-10 -44 0 -68 4 -64 10 3 6 35 10 71 10 36 0 64 -4 64 -10z m190 0 c0 -19 -51
-23 -84 -7 l-31 16 58 0 c31 1 57 -3 57 -9z m430 0 c0 -6 -63 -10 -170 -10
-107 0 -170 4 -170 10 0 6 63 10 170 10 107 0 170 -4 170 -10z m2028 -47 c71
-17 -47 -35 -165 -24 -76 7 -89 12 -78 32 6 9 36 10 114 5 58 -4 116 -9 129
-13z m3144 -5 c-7 -7 -12 -8 -12 -2 0 14 12 26 19 19 2 -3 -1 -11 -7 -17z
m-8135 -40 c-2 -13 -4 -5 -4 17 -1 22 1 32 4 23 2 -10 2 -28 0 -40z m3008 42
c3 -5 1 -10 -4 -10 -6 0 -11 5 -11 10 0 6 2 10 4 10 3 0 8 -4 11 -10z m1122
-7 c5 -14 -86 -20 -199 -15 -65 3 -88 15 -50 25 38 11 245 2 249 -10z m553 7
c8 -5 12 -12 8 -15 -7 -7 -278 -8 -285 -1 -3 3 -2 9 2 15 8 14 254 15 275 1z
m-2597 -15 c-4 -17 -73 -26 -178 -23 -119 4 -133 20 -25 29 109 8 205 6 203
-6z m292 4 c4 -6 4 -13 0 -17 -9 -9 -211 -16 -233 -7 -16 6 -15 8 2 21 24 17
221 20 231 3z m220 1 c3 -5 2 -10 -4 -10 -5 0 -13 5 -16 10 -3 6 -2 10 4 10 5
0 13 -4 16 -10z m345 0 c29 -18 -4 -25 -118 -25 -128 1 -192 11 -157 25 28 12
257 12 275 0z m195 0 c-8 -13 -71 -24 -85 -15 -9 6 -9 10 1 16 19 12 92 11 84
-1z m625 0 c12 -7 10 -11 -10 -18 -22 -9 -81 5 -99 23 -9 9 94 5 109 -5z
m-339 -101 c4 -52 7 -133 8 -181 l1 -88 -31 0 -31 0 4 173 c1 94 7 178 11 185
20 30 32 2 38 -89z m231 55 c48 -13 94 -24 102 -24 23 0 43 -38 58 -109 12
-60 11 -64 -7 -78 -45 -32 -155 -93 -168 -93 -18 0 -127 286 -127 333 0 9 24
4 142 -29z m-364 -12 c-10 -69 -78 -273 -94 -279 -15 -5 -139 54 -186 88 l-22
17 18 65 c10 36 23 73 30 83 12 15 181 61 235 63 22 1 23 -2 19 -37z m4812 8
c0 -5 -5 -10 -11 -10 -5 0 -7 5 -4 10 3 6 8 10 11 10 2 0 4 -4 4 -10z m-4057
-10 c20 0 37 -3 37 -8 0 -13 -158 -114 -169 -108 -14 9 -34 84 -27 101 5 14
65 25 101 19 11 -2 37 -4 58 -4z m811 -101 c58 -61 110 -119 116 -128 8 -17
-2 -18 -142 -24 -191 -9 -569 -8 -626 1 l-42 7 94 87 c63 59 98 100 106 123
l11 34 127 4 c70 1 155 4 188 5 l62 2 106 -111z m156 11 c0 -55 -3 -100 -8
-100 -4 0 -50 42 -101 94 -106 106 -107 103 27 105 l82 1 0 -100z m-2999 63
c-18 -34 -183 -203 -192 -197 -5 3 -9 50 -9 104 l0 99 78 4 c42 1 90 4 105 5
24 2 26 -1 18 -15z m378 -6 c6 -14 65 -60 151 -118 l142 -94 -51 -6 c-29 -4
-219 -10 -424 -14 l-372 -7 26 28 c14 16 67 75 118 132 l94 102 154 0 c152 0
154 0 162 -23z m541 -6 c-11 -40 -29 -71 -41 -71 -15 0 -167 78 -174 90 -4 7
33 10 109 10 l115 0 -9 -29z m-429 -20 c13 -11 21 -22 18 -26 -4 -3 -20 5 -35
19 -34 29 -18 35 17 7z m1808 -8 c-23 -27 -220 -193 -230 -193 -22 0 -4 22 58
72 37 29 90 72 117 96 50 42 80 56 55 25z m-218 -63 c-30 -28 -56 -48 -58 -46
-10 9 14 40 51 66 63 45 67 35 7 -20z m966 -12 c-2 -13 -4 -3 -4 22 0 25 2 35
4 23 2 -13 2 -33 0 -45z m2993 58 c0 -3 -4 -8 -10 -11 -5 -3 -10 -1 -10 4 0 6
5 11 10 11 6 0 10 -2 10 -4z m-8053 -53 c-3 -10 -5 -2 -5 17 0 19 2 27 5 18 2
-10 2 -26 0 -35z m1760 0 c-3 -10 -5 -2 -5 17 0 19 2 27 5 18 2 -10 2 -26 0
-35z m1756 -70 l37 -103 -30 0 c-18 0 -33 7 -38 18 -19 35 -25 212 -7 190 1
-2 19 -49 38 -105z m-781 80 c31 -36 31 -46 0 -24 -18 12 -32 27 -32 32 0 15
16 11 32 -8z m606 -94 c-2 -55 -7 -74 -20 -83 -9 -5 -20 -7 -24 -3 -10 10 26
157 38 157 5 0 8 -32 6 -71z m-480 25 c24 -17 30 -44 8 -44 -12 0 -46 40 -46
55 0 9 15 5 38 -11z m1097 -13 c-3 -6 -11 -11 -17 -11 -6 0 -6 6 2 15 14 17
26 13 15 -4z m-105 -60 c0 -5 -9 -11 -20 -14 -22 -6 -28 8 -7 16 19 8 27 8 27
-2z m-829 -21 l24 -21 -35 7 c-41 8 -50 12 -50 25 0 16 37 10 61 -11z m5127
-6 c29 -10 52 -21 52 -26 0 -4 -43 -8 -95 -8 -76 0 -97 3 -101 15 -4 8 0 22 7
31 15 18 54 15 137 -12z m-2088 -21 l0 -33 -154 0 -154 0 -4 30 c-3 17 -3 31
-2 33 1 1 72 2 158 2 l156 0 0 -32z m628 4 c-3 -19 -11 -23 -58 -29 -30 -3
-85 -6 -122 -7 l-68 -1 0 28 c0 16 2 31 4 33 2 2 59 3 126 1 118 -3 121 -4
118 -25z m312 -2 l0 -35 -89 0 c-161 0 -213 16 -181 55 10 12 39 15 141 15
l129 0 0 -35z m360 20 c7 -8 10 -22 6 -30 -4 -13 -32 -15 -171 -15 l-165 0 0
24 c0 32 8 33 176 35 114 1 144 -2 154 -14z m308 -11 c3 -19 -3 -22 -66 -28
-76 -8 -199 2 -208 16 -3 5 0 16 7 24 10 12 36 14 138 12 120 -3 126 -4 129
-24z m307 1 c0 -28 -76 -40 -189 -30 -72 6 -86 10 -86 24 0 10 3 21 7 25 4 3
66 5 137 4 123 -3 131 -4 131 -23z m-2615 6 c16 -4 25 -14 25 -26 0 -27 -45
-34 -217 -34 l-138 -1 0 30 0 29 128 4 c70 1 138 3 152 4 14 0 36 -2 50 -6z
m345 -5 c11 -8 16 -19 12 -30 -5 -14 -25 -16 -142 -16 -112 0 -137 3 -141 15
-4 8 -1 22 6 30 17 21 237 22 265 1z m715 -16 l0 -30 -160 0 -160 0 0 30 0 30
160 0 160 0 0 -30z m-2360 5 c21 -25 4 -45 -38 -45 -50 0 -76 25 -47 46 25 18
69 18 85 -1z m302 -2 c26 -27 -9 -37 -137 -41 l-125 -4 0 32 0 32 125 -4 c82
-2 128 -7 137 -15z m318 -13 l0 -30 -135 0 c-135 0 -135 0 -135 23 0 13 3 27
7 30 3 4 64 7 135 7 l128 0 0 -30z m259 3 c-30 -26 -39 -28 -123 -28 l-91 0
-3 28 -3 27 126 0 127 0 -33 -27z m-6021 -12 c4 -24 3 -24 -65 -17 -43 4 -80
2 -101 -5 -40 -14 -53 -6 -20 12 37 20 110 38 148 36 29 -2 36 -6 38 -26z
m267 -1 c0 -25 -1 -25 -104 -28 -67 -2 -108 1 -117 9 -39 32 5 49 126 46 94
-2 95 -2 95 -27z m263 -2 l3 -28 -110 0 c-110 0 -111 0 -111 23 0 13 3 27 7
31 4 4 52 5 107 4 l101 -3 3 -27z m290 20 c7 -7 12 -20 12 -30 0 -17 -10 -18
-132 -16 -117 3 -133 5 -136 21 -2 10 5 21 20 26 35 15 222 13 236 -1z m650 6
c16 -5 22 -13 20 -28 -3 -20 -9 -21 -140 -24 -134 -2 -138 -2 -138 18 0 12 9
24 23 30 25 10 200 13 235 4z m322 -24 l0 -30 -135 0 -135 0 0 30 0 30 135 0
135 0 0 -30z m340 0 l0 -30 -150 0 -150 0 0 30 0 30 150 0 150 0 0 -30z m329
24 c25 -5 31 -11 29 -28 -3 -20 -9 -21 -141 -24 -136 -3 -183 6 -174 31 2 6
14 14 28 18 31 9 217 11 258 3z m408 -17 c30 -30 0 -37 -175 -37 l-163 0 3 23
c4 28 48 35 205 33 93 -1 115 -4 130 -19z m350 7 c12 -32 -24 -44 -138 -44
-93 0 -110 3 -133 21 -14 11 -24 25 -21 30 4 5 69 9 146 9 120 0 140 -2 146
-16z m302 7 c22 -14 6 -37 -29 -45 -18 -3 -77 -6 -131 -6 -98 0 -99 0 -99 24
0 13 6 27 13 29 21 9 231 7 246 -2z m256 -16 c0 -18 -8 -20 -94 -23 -96 -3
-119 4 -108 33 6 13 22 15 104 13 90 -3 98 -5 98 -23z m150 15 c3 -6 3 -20 0
-31 -6 -18 -13 -21 -47 -16 -46 6 -63 19 -55 41 7 18 92 23 102 6z m-2761 -16
c3 -9 4 -20 0 -25 -3 -5 -70 -9 -150 -9 -133 0 -144 1 -144 18 0 10 3 22 7 25
3 4 68 7 144 7 116 0 138 -2 143 -16z m3784 -6 c3 -16 -5 -18 -57 -18 -66 0
-80 14 -28 29 46 14 81 9 85 -11z m-818 -8 c-36 -12 -110 -12 -110 0 0 6 29
10 68 9 49 -1 60 -3 42 -9z m1935 0 c-3 -5 -11 -10 -16 -10 -6 0 -7 5 -4 10 3
6 11 10 16 10 6 0 7 -4 4 -10z m-1622 -23 c10 -6 20 -29 24 -50 l6 -37 -247 0
c-145 0 -246 4 -246 9 0 12 76 34 205 60 168 33 232 38 258 18z m297 -13 c105
-18 220 -51 220 -64 0 -6 -88 -10 -230 -10 l-230 0 0 51 0 51 78 -7 c42 -4
115 -13 162 -21z m3324 10 c11 -4 16 -19 16 -50 0 -36 -3 -44 -18 -44 -10 0
-25 6 -34 13 -17 14 -48 58 -48 68 0 14 58 23 84 13z m381 -47 l0 -48 -163 -2
-162 -2 0 53 0 52 163 -2 162 -3 0 -48z m305 1 l0 -53 -129 3 c-141 3 -140 3
-141 69 0 25 19 28 183 31 l87 2 0 -52z m190 43 c22 -6 14 -11 -58 -39 -46
-18 -87 -30 -92 -27 -6 4 -10 22 -10 41 l0 34 68 -1 c37 -1 78 -4 92 -8z m290
0 c22 -7 17 -11 -54 -44 -43 -20 -82 -34 -87 -31 -5 3 -9 23 -9 45 l0 39 63
-1 c34 -1 73 -4 87 -8z m-3780 -45 c0 -19 3 -42 6 -50 6 -15 -8 -16 -132 -14
l-139 3 -3 42 -3 42 93 4 c51 1 112 4 136 5 42 2 42 2 42 -32z m304 18 c3 -9
6 -31 6 -50 l0 -34 -135 0 -135 0 0 50 0 50 129 0 c108 0 130 -3 135 -16z
m176 7 c0 -12 -42 -55 -73 -76 -40 -26 -57 -14 -57 40 l0 45 65 0 c36 0 65 -4
65 -9z m144 -7 c3 -9 6 -31 6 -50 l0 -34 -92 0 -92 0 30 31 c59 63 134 90 148
53z m396 -34 l0 -50 -177 2 -178 3 -3 48 -3 47 180 0 181 0 0 -50z m330 0 l0
-50 -145 0 -145 0 0 50 0 50 145 0 145 0 0 -50z m340 0 l0 -50 -119 0 c-159 0
-179 5 -190 44 -14 53 -4 56 160 56 l149 0 0 -50z m354 41 c9 -14 -11 -59 -31
-69 -10 -5 -78 -13 -150 -16 l-133 -7 0 50 0 51 154 0 c85 0 157 -4 160 -9z
m184 4 c-2 -3 -37 -16 -76 -29 -69 -24 -71 -24 -77 -5 -11 32 4 39 82 39 42 0
74 -2 71 -5z m1382 -34 l0 -40 -100 -3 c-55 -2 -100 0 -100 3 0 9 168 78 193
79 4 0 7 -18 7 -39z m-9070 14 c12 -8 14 -105 1 -105 -12 0 -229 85 -237 93
-20 20 204 32 236 12z m2493 -13 c10 -9 17 -29 17 -49 l0 -33 -160 0 -160 0
-6 24 c-12 48 -1 71 36 78 61 11 253 -2 273 -20z m1027 19 c20 -6 25 -13 23
-39 -2 -58 -12 -62 -149 -62 l-124 0 0 55 0 55 113 -1 c61 -1 123 -4 137 -8z
m268 -34 c5 -62 -9 -70 -103 -62 -44 4 -86 11 -92 17 -14 11 -18 70 -6 82 4 4
50 5 103 4 l95 -3 3 -38z m1265 36 c-7 -2 -19 -2 -25 0 -7 3 -2 5 12 5 14 0
19 -2 13 -5z m102 -23 c0 -29 -32 -41 -41 -16 -9 24 4 48 23 44 12 -2 18 -12
18 -28z m-4877 -37 l-3 -58 -112 -3 -113 -3 0 61 0 60 115 0 116 0 -3 -57z
m262 -3 l0 -60 -42 0 c-24 0 -73 3 -110 7 l-68 6 0 53 0 54 110 0 110 0 0 -60z
m298 3 l-3 -58 -125 0 -125 0 -3 58 -3 57 131 0 131 0 -3 -57z m132 47 c0 -22
-41 -90 -60 -100 -17 -9 -22 -7 -30 15 -11 30 -13 78 -3 88 11 11 93 8 93 -3z
m518 4 c34 -9 26 -48 -10 -52 -33 -4 -188 37 -188 49 0 10 162 12 198 3z m322
-43 l0 -49 -66 -7 c-75 -9 -193 7 -205 27 -5 7 -9 28 -9 46 l0 32 140 0 140 0
0 -49z m324 36 c12 -9 17 -23 14 -47 -3 -34 -4 -35 -58 -43 -30 -4 -98 -6
-150 -5 l-95 3 -3 53 -3 52 139 0 c97 0 143 -4 156 -13z m756 -37 l0 -50 -175
0 -175 0 0 43 c0 24 3 47 7 50 3 4 82 7 175 7 l168 0 0 -50z m142 0 l53 -49
-76 -1 c-83 0 -89 4 -89 59 0 59 43 56 112 -9z m200 0 l3 -50 -46 0 c-37 0
-55 7 -91 34 -76 59 -72 66 36 66 l94 0 4 -50z m633 40 c10 -16 -16 -43 -28
-31 -11 11 -2 41 12 41 5 0 13 -5 16 -10z m3918 -20 c-7 -26 -32 -32 -118 -28
l-70 3 90 26 c50 15 93 25 97 23 3 -2 4 -13 1 -24z m137 1 c15 -28 13 -31 -20
-31 -16 0 -30 3 -30 6 0 12 21 44 30 44 5 0 14 -9 20 -19z m-6740 -7 c0 -8 -4
-12 -10 -9 -5 3 -10 10 -10 16 0 5 5 9 10 9 6 0 10 -7 10 -16z m-92 -27 c17
-35 9 -47 -34 -47 -39 0 -44 16 -18 56 20 30 34 27 52 -9z m243 3 c54 -17 100
-34 103 -39 5 -8 -109 -21 -181 -21 -33 0 -33 1 -33 45 0 25 3 45 6 45 4 0 51
-14 105 -30z m3148 -36 c2 -2 -1 -61 -7 -131 -12 -141 -26 -186 -91 -281 -88
-129 -216 -243 -348 -311 -40 -20 -43 -20 -52 -3 -8 15 -39 352 -58 639 l-6
93 194 3 c182 3 359 -2 368 -9z m581 -106 c0 -149 -18 -552 -26 -590 -7 -34
-25 -35 -90 -8 -133 57 -324 242 -396 384 -23 44 -43 216 -33 283 l6 43 197 3
c108 1 230 3 270 5 l72 2 0 -122z m-1186 70 c5 -27 32 -306 61 -621 5 -55 4
-57 -14 -45 -24 17 -587 515 -661 585 -30 28 -51 55 -47 60 5 4 138 10 296 13
249 4 290 7 312 22 35 25 46 22 53 -14z m1609 4 c169 -2 307 -8 305 -12 -3 -9
-615 -582 -655 -613 -13 -11 -27 -16 -30 -13 -7 7 15 608 24 643 4 20 8 21 27
10 15 -8 112 -13 329 -15z m2471 8 c14 -5 26 -16 26 -25 0 -12 -16 -15 -87
-15 -80 0 -86 1 -71 16 14 14 59 30 95 33 6 1 23 -3 37 -9z m656 -4 c-15 -14
-424 -188 -467 -198 -32 -8 -41 8 -46 87 -2 39 -7 80 -11 92 -6 16 -3 22 11
26 10 3 133 5 273 6 219 1 252 -1 240 -13z m-1350 -5 c-8 -4 -276 -90 -595
-190 -319 -101 -762 -241 -985 -311 -489 -155 -508 -161 -515 -150 -4 7 341
335 610 578 l90 82 705 0 c388 -1 698 -4 690 -9z m-3790 -313 c184 -165 346
-309 359 -319 56 -45 23 -37 -423 100 -176 55 -442 136 -591 181 -148 45 -423
129 -610 187 -187 58 -357 111 -377 116 -21 6 -38 15 -38 20 0 4 3 6 8 4 4 -3
239 -1 522 3 283 3 583 7 665 8 l150 1 335 -301z m-2332 270 c-5 -16 -168 -24
-168 -9 0 15 20 19 98 20 55 1 73 -2 70 -11z m6900 -37 c8 -5 12 -17 10 -27
-3 -17 -15 -19 -118 -22 -142 -4 -180 2 -180 28 0 13 9 20 28 23 53 8 247 7
260 -2z m-6843 -46 c0 -19 -8 -20 -130 -23 -138 -2 -169 5 -145 33 11 13 34
15 144 13 123 -3 131 -4 131 -23z m6780 -44 c61 -5 70 -9 73 -27 3 -19 -3 -22
-59 -28 -34 -3 -102 -6 -150 -6 l-89 0 0 35 0 35 78 -1 c42 -1 109 -4 147 -8z
m-6775 -51 l0 -30 -145 0 -145 0 0 30 0 30 145 0 145 0 0 -30z m6865 -70 l0
-35 -158 -3 -158 -3 3 33 c3 32 5 33 53 39 28 3 97 6 155 5 l105 -1 0 -35z
m-3526 -51 c95 -154 208 -261 376 -355 l88 -49 -64 -6 c-35 -4 -230 -7 -434
-7 -203 0 -399 3 -435 7 l-65 6 75 45 c169 102 293 224 365 361 20 38 39 69
43 69 4 0 27 -32 51 -71z m-3339 22 c0 -27 -2 -28 -61 -35 -136 -14 -212 -3
-217 31 -4 28 8 30 156 32 l122 1 0 -29z"/>
<path d="M11760 4020 c0 -5 5 -10 10 -10 6 0 10 5 10 10 0 6 -4 10 -10 10 -5
0 -10 -4 -10 -10z"/>
</g>
</svg>
