<svg id="shutterworth-logo" xmlns="http://www.w3.org/2000/svg" width="214.815" height="39.423" viewBox="0 0 214.815 39.423">
  <g id="Group_10" data-name="Group 10" transform="translate(0 0)">
    <path id="Path_1" data-name="Path 1" d="M140.2,8.448l-.241-1.126h0L139.72,6.2a.079.079,0,0,0-.08-.08H139.4c-.08,0-.241-.241-.4-.4a.281.281,0,0,0-.161-.08h-.161l-2.172.644a.079.079,0,0,0-.08.08c0,.08-.08.08-.08.161-.08.08-.08.161-.322.161h-.4a.519.519,0,0,1-.483-.483.484.484,0,0,1,.08-.322l.161-.241c.161-.161.241-.161.322-.161h.161a.281.281,0,0,0,.161-.08l1.69-1.529a.281.281,0,0,0,.08-.161V3.54a1.667,1.667,0,0,1-.161-.483c0-.08.08-.161.08-.241a.079.079,0,0,0-.08-.08l-.885-.724h0l-.885-.724s-.08-.08-.08,0c-.08,0-.08.08-.161.161s-.322,0-.563-.08h-.161a.079.079,0,0,0-.08.08l-1.207,1.931a.111.111,0,0,0,0,.161V3.7c0,.08,0,.161-.161.4,0,0-.161.161-.161.241a.615.615,0,0,1-.4.161.519.519,0,0,1-.483-.483V3.7a.473.473,0,0,1,.161-.4l.08-.08a.249.249,0,0,0,.08-.161L133.042.8V.644c0-.08-.08-.08-.161-.08-.161-.08-.4-.161-.4-.322-.08-.08,0-.161-.08-.241h-2.414a.4.4,0,0,1-.08.241,1.756,1.756,0,0,1-.4.322.281.281,0,0,1-.161.08V.8l.322,2.253a.249.249,0,0,0,.08.161l.08.08a.473.473,0,0,1,.161.4v.322a.519.519,0,0,1-.483.483.615.615,0,0,1-.4-.161l-.161-.241a.52.52,0,0,1-.161-.4V3.379l-1.207-1.931-.08-.08h-.161a1.369,1.369,0,0,1-.563.08l-.161-.161h-.08l-.885.724h0l-.885.724a.079.079,0,0,0-.08.08c0,.08.08.08.08.241a1.668,1.668,0,0,1-.161.483.111.111,0,0,0,0,.161.281.281,0,0,0,.08.161l1.69,1.529a.281.281,0,0,0,.161.08h.161c.08,0,.161,0,.322.161l.161.241c.08.08.08.161.08.322a.519.519,0,0,1-.483.483h-.4a.349.349,0,0,1-.322-.161c-.08-.08-.08-.08-.08-.161l-.08-.08-2.253-.644h-.161c-.08,0-.08.08-.161.08-.161.161-.241.322-.4.4h-.241a.079.079,0,0,0-.08.08l-.241,1.126h0L122.1,8.448v.08a.4.4,0,0,1,.241.08,2.677,2.677,0,0,1,.241.483.249.249,0,0,0,.08.161h.161l2.253.08h.161c.08,0,.08-.08.161-.08.08-.08.161-.08.4-.08,0,0,.241,0,.322.08a.482.482,0,0,1,.4.4.37.37,0,0,1-.241.483,1.157,1.157,0,0,1-.241.161.875.875,0,0,1-.4.08c-.08,0-.08,0-.161-.08h-.161l-2.092.885a.249.249,0,0,0-.161.08v.724l-.161.161v.08l.563,1.046h0l.563,1.046a.079.079,0,0,0,.08.08c.08,0,.08-.08.241-.08a2.644,2.644,0,0,1,.483.241.2.2,0,0,0,.322,0l1.77-1.368a.079.079,0,0,0,.08-.08c0-.08,0-.08.08-.161,0-.08.08-.161.241-.322a.811.811,0,0,1,.241-.08.484.484,0,0,1,.322-.08.519.519,0,0,1,.483.483v.161a.81.81,0,0,1-.08.241.547.547,0,0,1-.241.322c-.08,0-.08.08-.161.08a.079.079,0,0,0-.08.08l-1.046,2.011a.281.281,0,0,0-.08.161c0,.08.08.08.08.161.161.161.322.322.322.4v.241a.079.079,0,0,0,.08.08l1.126.4h0l1.126.4h.08l.161-.161c.08-.08.322-.08.483-.161a.284.284,0,0,0,.241-.241l.483-2.172V14.8c0-.08,0-.08-.08-.161a.628.628,0,0,1,0-.4l.08-.322a.543.543,0,0,1,.483-.322h0a.543.543,0,0,1,.483.322,1.825,1.825,0,0,1,.08.322.628.628,0,0,1,0,.4c0,.08-.08.08-.08.161v.161l.483,2.172a.284.284,0,0,0,.241.241.863.863,0,0,1,.483.161c.08.08.08.161.161.161h.08l1.126-.4h0l1.126-.4a.079.079,0,0,0,.08-.08v-.241c0-.08.161-.241.322-.4a.2.2,0,0,0,0-.322l-1.046-2.011a.079.079,0,0,0-.08-.08c-.08,0-.08,0-.161-.08-.08,0-.161-.08-.241-.322l-.08-.241v-.161a.519.519,0,0,1,.483-.483c.08,0,.241.08.322.08a.4.4,0,0,0,.241.08.431.431,0,0,1,.241.322c0,.08,0,.08.08.161a.079.079,0,0,0,.08.08l1.77,1.368a.2.2,0,0,0,.322,0c.161-.08.322-.241.483-.241s.161.08.241.08a.079.079,0,0,0,.08-.08l.563-1.046h0l.563-1.046v-.08l-.161-.161a.66.66,0,0,1,0-.563v-.161c0-.08-.161-.08-.161-.08l-2.092-.885h-.161c-.08,0-.08,0-.161.08a.421.421,0,0,1-.4-.08,1.157,1.157,0,0,1-.241-.161.688.688,0,0,1-.241-.483.482.482,0,0,1,.4-.4,1.825,1.825,0,0,0,.322-.08c.241,0,.322,0,.4.08s.08.08.161.08a.111.111,0,0,0,.161,0l2.253-.08h.161c.08,0,.08-.08.08-.161a2.678,2.678,0,0,1,.241-.483.3.3,0,0,1,.241-.08C140.2,8.528,140.2,8.448,140.2,8.448Zm-8.931,3.7a3.379,3.379,0,1,1,3.379-3.379A3.348,3.348,0,0,1,131.272,12.149Z" transform="translate(-23.864 0)" fill="#fff"/>
    <g id="Group_8" data-name="Group 8" transform="translate(117.384 2.735)">
      <path id="Path_2" data-name="Path 2" d="M232.792,3.48H167.3c-7.724,0-10.218.4-13.919,2.172a29.156,29.156,0,0,0-7.482,5.39,10.6,10.6,0,0,0,2.011-1.207c1.126-.8,2.253-1.448,2.9-1.85a19.637,19.637,0,0,1,5.954-2.655c3.46-.885,7.643-.8,10.781-.724,3.3.08,3.862.161,6.839.161,3.379.08,8.689.161,13.114.241,7.321.161,14.723.322,19.39.322,13.758,0,29.849-.4,36.446-1.931h-10.54Z" transform="translate(-145.9 -3.4)" fill="#fff"/>
      <path id="Path_3" data-name="Path 3" d="M215.976,8.9H167.3c-1.77,0-3.218,0-4.505.08h0a20.631,20.631,0,0,0-9.413,2.092,29.156,29.156,0,0,0-7.482,5.39,10.6,10.6,0,0,0,2.011-1.207c1.126-.8,2.253-1.529,2.9-1.931a19.692,19.692,0,0,1,5.954-2.575,30.251,30.251,0,0,1,6.034-.8h5.793s4.827.08,6.839.161c7.321.161,11.264.241,14.723.4,14,.563,29.688-.08,36.285-1.609H215.976Z" transform="translate(-145.9 -4.475)" fill="#fff"/>
      <path id="Path_4" data-name="Path 4" d="M196.828,14.18H167.3c-1.77,0-3.218,0-4.505.08h0a20.631,20.631,0,0,0-9.413,2.092,29.156,29.156,0,0,0-7.482,5.39,10.6,10.6,0,0,0,2.011-1.207c1.126-.8,2.253-1.448,2.9-1.931a19.692,19.692,0,0,1,5.954-2.575,30.251,30.251,0,0,1,6.034-.8h4.264c5.712.161,10.057.4,11.183.4,13.758.724,22.447,0,29.044-1.529H196.828v.08Z" transform="translate(-145.9 -5.491)" fill="#fff"/>
    </g>
    <g id="Group_9" data-name="Group 9" transform="translate(0 2.816)">
      <path id="Path_5" data-name="Path 5" d="M10.54,3.5H76.03c7.724,0,10.218.4,13.919,2.172a29.155,29.155,0,0,1,7.482,5.391A10.6,10.6,0,0,1,95.42,9.856c-1.126-.8-2.253-1.448-2.9-1.85A19.637,19.637,0,0,0,86.57,5.35c-3.46-.885-7.643-.8-10.781-.724-3.3.08-3.862.161-6.839.161-3.379.08-8.689.161-13.114.241-7.4.241-14.8.4-19.39.4C22.688,5.431,6.6,5.029,0,3.58H0L10.54,3.5Z" transform="translate(0 -3.5)" fill="#fff"/>
      <path id="Path_6" data-name="Path 6" d="M31.479,8.9H80.154c1.77,0,3.218,0,4.505.08h0a20.631,20.631,0,0,1,9.413,2.092,29.155,29.155,0,0,1,7.482,5.39,10.6,10.6,0,0,1-2.011-1.207c-1.126-.8-2.253-1.529-2.9-1.931a19.692,19.692,0,0,0-5.954-2.575,30.251,30.251,0,0,0-6.034-.8H78.867s-4.827.08-6.839.161c-7.321.161-11.264.241-14.723.4-14,.563-29.688-.08-36.2-1.609H31.479Z" transform="translate(-4.124 -4.555)" fill="#fff"/>
      <path id="Path_7" data-name="Path 7" d="M55.259,14.18H84.786c1.77,0,3.218,0,4.506.08h0A20.631,20.631,0,0,1,98.7,16.353a29.156,29.156,0,0,1,7.482,5.39,10.6,10.6,0,0,1-2.011-1.207c-1.126-.8-2.253-1.448-2.9-1.931a19.692,19.692,0,0,0-5.954-2.575,30.251,30.251,0,0,0-6.034-.8H85.028c-5.712.161-10.057.4-11.183.4-13.758.724-22.447,0-29.044-1.529H55.259Z" transform="translate(-8.756 -5.572)" fill="#fff"/>
    </g>
  </g>
  <g id="Group_11" data-name="Group 11" transform="translate(36.446 24.137)">
    <path id="Path_8" data-name="Path 8" d="M51.415,36.778,49.4,35.893c-1.287-.563-1.85-1.287-1.85-2.253a1.965,1.965,0,0,1,2.092-2.011,2.6,2.6,0,0,1,2.333,1.609h.08l1.368-.885v-.08a3.858,3.858,0,0,0-3.7-2.172c-2.333,0-4.023,1.448-4.023,3.54,0,1.77.885,2.977,2.816,3.781l1.69.724c1.448.644,2.172,1.529,2.172,2.735a2.537,2.537,0,0,1-2.735,2.575c-1.368,0-2.333-.885-2.735-2.575h-.08l-1.529.724v.08a4.194,4.194,0,0,0,4.345,3.3,4.249,4.249,0,0,0,4.586-4.345A4.069,4.069,0,0,0,51.415,36.778Z" transform="translate(-45.3 -30.02)" fill="#fff"/>
    <path id="Path_9" data-name="Path 9" d="M69.422,30.6h-1.69a.079.079,0,0,0-.08.08v5.39h-7.4V30.68a.079.079,0,0,0-.08-.08H58.48a.079.079,0,0,0-.08.08V44.76a.079.079,0,0,0,.08.08h1.69a.079.079,0,0,0,.08-.08v-7h7.4v7a.079.079,0,0,0,.08.08h1.69a.079.079,0,0,0,.08-.08l-.08-14.16Z" transform="translate(-47.86 -30.117)" fill="#fff"/>
    <path id="Path_10" data-name="Path 10" d="M85.522,30.6h-1.69a.079.079,0,0,0-.08.08v8.77c0,2.816-1.126,4.1-3.7,4.1s-3.7-1.287-3.7-4.1V30.68a.079.079,0,0,0-.08-.08H74.58a.079.079,0,0,0-.08.08v8.77c0,3.862,1.77,5.793,5.551,5.793,3.7,0,5.551-1.85,5.551-5.793l-.08-8.85Z" transform="translate(-51.007 -30.117)" fill="#fff"/>
    <path id="Path_11" data-name="Path 11" d="M99.835,30.6H90.18a.079.079,0,0,0-.08.08V32.29a.079.079,0,0,0,.08.08h3.942V44.841a.079.079,0,0,0,.08.08h1.69a.079.079,0,0,0,.08-.08V32.29h3.942a.079.079,0,0,0,.08-.08L99.835,30.6Z" transform="translate(-54.056 -30.117)" fill="#fff"/>
    <path id="Path_12" data-name="Path 12" d="M113.635,30.6H103.98a.079.079,0,0,0-.08.08V32.29a.079.079,0,0,0,.08.08h3.942V44.841a.079.079,0,0,0,.08.08h1.69a.079.079,0,0,0,.08-.08V32.29h3.942a.079.079,0,0,0,.08-.08l-.161-1.609Z" transform="translate(-56.753 -30.117)" fill="#fff"/>
    <path id="Path_13" data-name="Path 13" d="M125.061,43.151h-5.31V30.68a.079.079,0,0,0-.08-.08h-1.69a.079.079,0,0,0-.08.08V44.76a.079.079,0,0,0,.08.08h7a.079.079,0,0,0,.08-.08V43.151Z" transform="translate(-59.49 -30.117)" fill="#fff"/>
    <path id="Path_14" data-name="Path 14" d="M136.282,30.6h-7.4a.079.079,0,0,0-.08.08V44.76a.079.079,0,0,0,.08.08h7.4a.079.079,0,0,0,.08-.08V43.231a.079.079,0,0,0-.08-.08H130.57v-5.31h5.712a.079.079,0,0,0,.08-.08V36.232a.079.079,0,0,0-.08-.08H130.57V32.209h5.712a.079.079,0,0,0,.08-.08l-.08-1.529Z" transform="translate(-61.62 -30.117)" fill="#fff"/>
    <path id="Path_15" data-name="Path 15" d="M158.485,30.483h-1.931L153.014,40.7l-3.7-10.7h-.161l-3.7,10.781-3.54-10.218H139.9v.08l5.471,14.643h.161l3.62-10.781,3.62,10.781h.161l5.551-14.8Z" transform="translate(-63.789 -30)" fill="#fff"/>
    <path id="Path_16" data-name="Path 16" d="M169.943,30.2a7.889,7.889,0,0,0-5.391,2.172,7.3,7.3,0,0,0-2.253,5.31,7.117,7.117,0,0,0,2.253,5.23,7.538,7.538,0,0,0,5.391,2.172,7.889,7.889,0,0,0,5.39-2.172,7.044,7.044,0,0,0,2.172-5.23,7.223,7.223,0,0,0-2.172-5.31A8.041,8.041,0,0,0,169.943,30.2Zm0,13.275a5.769,5.769,0,0,1-5.712-5.793,5.769,5.769,0,0,1,5.712-5.793,5.408,5.408,0,0,1,4.023,1.69,5.918,5.918,0,0,1,1.69,4.1,5.717,5.717,0,0,1-1.69,4.1A5.875,5.875,0,0,1,169.943,43.475Z" transform="translate(-68.167 -30.039)" fill="#fff"/>
    <path id="Path_17" data-name="Path 17" d="M186.723,38.063h.161c2.494,0,3.862-1.207,3.862-3.62a4.013,4.013,0,0,0-1.368-3.218,5.173,5.173,0,0,0-3.3-.724h-3.3a.079.079,0,0,0-.08.08V44.66a.079.079,0,0,0,.08.08h1.609a.079.079,0,0,0,.08-.08V37.982h.161l5.149,6.678h2.253v-.08Zm2.253-3.54c0,1.931-.965,2.253-3.218,2.253H184.55V32.19h1.207C187.93,32.109,188.975,32.511,188.975,34.523Z" transform="translate(-72.155 -30.098)" fill="#fff"/>
    <path id="Path_18" data-name="Path 18" d="M204.035,30.6H194.38a.079.079,0,0,0-.08.08V32.29a.079.079,0,0,0,.08.08h3.942V44.841a.079.079,0,0,0,.08.08h1.69a.079.079,0,0,0,.08-.08V32.29h3.942a.079.079,0,0,0,.081-.08l-.161-1.609Z" transform="translate(-74.422 -30.117)" fill="#fff"/>
    <path id="Path_19" data-name="Path 19" d="M219.122,30.6h-1.69a.079.079,0,0,0-.08.08v5.39h-7.4V30.68a.079.079,0,0,0-.08-.08h-1.69a.079.079,0,0,0-.08.08V44.76a.079.079,0,0,0,.08.08h1.69a.079.079,0,0,0,.08-.08v-7h7.4v7a.079.079,0,0,0,.08.08h1.69a.079.079,0,0,0,.08-.08l-.08-14.16Z" transform="translate(-77.119 -30.117)" fill="#fff"/>
  </g>
</svg>
